<svg width="19" height="21" viewBox="0 0 19 21" fill="none" xmlns="http://www.w3.org/2000/svg">
<path fill-rule="evenodd" clip-rule="evenodd" d="M1.65174 0C1.46039 0 1.2898 0.150444 1.224 0.376685L0.0556823 4.4025C0.0187931 4.52981 -2.69644e-06 4.66297 2.90144e-10 4.79699V6.39847C2.90144e-10 7.30401 0.582639 8.039 1.30145 8.039C2.02025 8.039 2.6034 7.30401 2.6034 6.39847C2.6034 7.30458 3.18604 8.039 3.90485 8.039C4.62365 8.039 5.2068 7.30401 5.2068 6.39847C5.2068 7.30458 5.78944 8.039 6.50825 8.039C7.22705 8.039 7.80919 7.30516 7.8102 6.39962C7.8102 7.30516 8.39284 8.039 9.11165 8.039C9.83045 8.039 10.4131 7.30401 10.4131 6.39847C10.4131 7.30458 10.9962 8.039 11.715 8.039C12.4339 8.039 13.016 7.30516 13.0165 6.39962C13.017 7.30516 13.5996 8.039 14.3184 8.039C15.0373 8.039 15.6199 7.30401 15.6199 6.39847C15.6199 7.30458 16.2025 8.039 16.9218 8.039C17.6407 8.039 18.2233 7.30401 18.2233 6.39847V4.79699C18.2233 4.66297 18.2045 4.52981 18.1676 4.4025L16.9993 0.377259C16.9335 0.150444 16.7629 0 16.5716 0H1.65174Z" fill="#FFD400"/>
<path fill-rule="evenodd" clip-rule="evenodd" d="M2.02496 8.74534V13.207H0.759449C0.692322 13.207 0.627945 13.2372 0.580479 13.2911C0.533014 13.3449 0.506348 13.418 0.506348 13.4941V14.0683C0.506348 14.1445 0.533014 14.2175 0.580479 14.2713C0.627945 14.3252 0.692322 14.3554 0.759449 14.3554H17.4641C17.5313 14.3554 17.5956 14.3252 17.6431 14.2713C17.6906 14.2175 17.7172 14.1445 17.7172 14.0683V13.4941C17.7172 13.418 17.6906 13.3449 17.6431 13.2911C17.5956 13.2372 17.5313 13.207 17.4641 13.207H16.1986V8.74534C15.9867 8.64971 15.7909 8.51314 15.62 8.34167C15.4886 8.47272 15.3428 8.58389 15.1862 8.67242V13.207H3.03736V8.67242C2.88077 8.58389 2.73495 8.47272 2.60354 8.34167C2.43346 8.51106 2.23908 8.64887 2.02496 8.74534ZM15.1862 7.6216C15.2291 7.57299 15.2696 7.52073 15.3077 7.46484H15.1862V7.6216ZM15.9324 7.46484C16.0091 7.57709 16.0987 7.6773 16.1986 7.76286V7.46484H15.9324ZM2.02496 7.76286C2.12576 7.67841 2.21542 7.57806 2.29122 7.46484H2.02496V7.76286ZM2.91587 7.46484H3.03736V7.6216C2.99411 7.57218 2.95354 7.51983 2.91587 7.46484ZM1.26565 15.5038C1.19852 15.5038 1.13415 15.5341 1.08668 15.5879C1.03922 15.6418 1.01255 15.7148 1.01255 15.791V20.0976C1.01255 20.2499 1.06588 20.3959 1.16081 20.5036C1.25575 20.6113 1.3845 20.6718 1.51875 20.6718H16.7048C16.8391 20.6718 16.9678 20.6113 17.0628 20.5036C17.1577 20.3959 17.211 20.2499 17.211 20.0976V15.791C17.211 15.7148 17.1844 15.6418 17.1369 15.5879C17.0894 15.5341 17.0251 15.5038 16.9579 15.5038H1.26565Z" fill="#FFD400"/>
<path d="M4.0498 11.7712C4.0498 11.6951 4.07647 11.6221 4.12394 11.5682C4.1714 11.5144 4.23578 11.4841 4.30291 11.4841H5.82151C5.88864 11.4841 5.95302 11.5144 6.00048 11.5682C6.04795 11.6221 6.07461 11.6951 6.07461 11.7712V12.9197C6.07461 12.9958 6.04795 13.0688 6.00048 13.1227C5.95302 13.1765 5.88864 13.2068 5.82151 13.2068H4.30291C4.23578 13.2068 4.1714 13.1765 4.12394 13.1227C4.07647 13.0688 4.0498 12.9958 4.0498 12.9197V11.7712Z" fill="#FFD400"/>
<path d="M5.06201 12.3455C5.06201 12.2693 5.08868 12.1963 5.13614 12.1424C5.18361 12.0886 5.24799 12.0583 5.31511 12.0583H6.83372C6.90085 12.0583 6.96522 12.0886 7.01269 12.1424C7.06016 12.1963 7.08682 12.2693 7.08682 12.3455V12.9197C7.08682 12.9958 7.06016 13.0688 7.01269 13.1227C6.96522 13.1765 6.90085 13.2068 6.83372 13.2068H5.31511C5.24799 13.2068 5.18361 13.1765 5.13614 13.1227C5.08868 13.0688 5.06201 12.9958 5.06201 12.9197V12.3455ZM9.11163 12.3455C9.11163 12.5739 9.03163 12.793 8.88924 12.9545C8.74684 13.116 8.55371 13.2068 8.35233 13.2068C8.15095 13.2068 7.95782 13.116 7.81542 12.9545C7.67302 12.793 7.59302 12.5739 7.59302 12.3455C7.59302 12.117 7.67302 11.8979 7.81542 11.7364C7.95782 11.5749 8.15095 11.4841 8.35233 11.4841C8.55371 11.4841 8.74684 11.5749 8.88924 11.7364C9.03163 11.8979 9.11163 12.117 9.11163 12.3455Z" fill="#FFD400"/>
</svg>
