<svg width="12" height="16" viewBox="0 0 12 16" fill="none" xmlns="http://www.w3.org/2000/svg">
<path d="M0 16V1.66813C0 1.1926 0.154333 0.795871 0.463 0.477935C0.771666 0.16 1.156 0.000688172 1.616 0H10.385C10.845 0 11.2293 0.159312 11.538 0.477935C11.8467 0.796559 12.0007 1.19329 12 1.66813V16L6 13.3399L0 16ZM1 14.4L6 12.1806L11 14.4V1.66813C11 1.50916 10.936 1.36327 10.808 1.23045C10.68 1.09763 10.5387 1.03157 10.384 1.03226H1.616C1.462 1.03226 1.32067 1.09832 1.192 1.23045C1.06333 1.36258 0.999333 1.50847 1 1.66813V14.4Z" fill="#6B7280"/>
</svg>
