<svg width="24" height="21" viewBox="0 0 24 21" fill="none" xmlns="http://www.w3.org/2000/svg">
<path d="M2.25 16.5C1.8375 16.5 1.5 16.8375 1.5 17.25C1.5 19.3219 3.17812 21 5.25 21H18.75C20.8219 21 22.5 19.3219 22.5 17.25C22.5 16.8375 22.1625 16.5 21.75 16.5H2.25ZM1.5 7.96875C1.5 8.54062 1.96406 9 2.53125 9H21.4688C22.0406 9 22.5 8.53594 22.5 7.96875C22.5 7.1625 22.3781 6.35625 21.9938 5.64844C20.9531 3.73594 18.1359 0 12 0C5.86406 0 3.04688 3.73125 2.00625 5.64844C1.62187 6.35625 1.5 7.1625 1.5 7.96875ZM0 12.75C0 13.5797 0.670312 14.25 1.5 14.25H22.5C23.3297 14.25 24 13.5797 24 12.75C24 11.9203 23.3297 11.25 22.5 11.25H1.5C0.670312 11.25 0 11.9203 0 12.75ZM12 1.875C12.2984 1.875 12.5845 1.99353 12.7955 2.2045C13.0065 2.41548 13.125 2.70163 13.125 3C13.125 3.29837 13.0065 3.58452 12.7955 3.7955C12.5845 4.00647 12.2984 4.125 12 4.125C11.7016 4.125 11.4155 4.00647 11.2045 3.7955C10.9935 3.58452 10.875 3.29837 10.875 3C10.875 2.70163 10.9935 2.41548 11.2045 2.2045C11.4155 1.99353 11.7016 1.875 12 1.875ZM5.625 4.5C5.625 4.20163 5.74353 3.91548 5.9545 3.7045C6.16548 3.49353 6.45163 3.375 6.75 3.375C7.04837 3.375 7.33452 3.49353 7.5455 3.7045C7.75647 3.91548 7.875 4.20163 7.875 4.5C7.875 4.79837 7.75647 5.08452 7.5455 5.2955C7.33452 5.50647 7.04837 5.625 6.75 5.625C6.45163 5.625 6.16548 5.50647 5.9545 5.2955C5.74353 5.08452 5.625 4.79837 5.625 4.5ZM17.25 3.375C17.5484 3.375 17.8345 3.49353 18.0455 3.7045C18.2565 3.91548 18.375 4.20163 18.375 4.5C18.375 4.79837 18.2565 5.08452 18.0455 5.2955C17.8345 5.50647 17.5484 5.625 17.25 5.625C16.9516 5.625 16.6655 5.50647 16.4545 5.2955C16.2435 5.08452 16.125 4.79837 16.125 4.5C16.125 4.20163 16.2435 3.91548 16.4545 3.7045C16.6655 3.49353 16.9516 3.375 17.25 3.375Z" fill="#6B7280"/>
</svg>
