<svg width="32" height="32" viewBox="0 0 32 32" fill="none" xmlns="http://www.w3.org/2000/svg">
<circle cx="16" cy="16" r="15.5" fill="#F9FAFB" stroke="#E5E7EB"/>
<path d="M17.8 11C18.1027 10.9999 18.3943 11.1058 18.6163 11.2964C18.8383 11.487 18.9743 11.7482 18.997 12.0278L19 12.1111C19 12.2472 19.054 12.3785 19.1516 12.4802C19.2493 12.5819 19.3838 12.6469 19.5298 12.6628L19.6 12.6667H20.2C20.6591 12.6666 21.1009 12.8291 21.435 13.1207C21.769 13.4124 21.9701 13.8112 21.997 14.2356L22 14.3333V19.3333C22 19.7585 21.8246 20.1675 21.5096 20.4768C21.1947 20.7861 20.7639 20.9723 20.3056 20.9972L20.2 21H11.8C11.3409 21 10.8991 20.8376 10.565 20.546C10.231 20.2543 10.0299 19.8555 10.003 19.4311L10 19.3333V14.3333C9.99997 13.9082 10.1754 13.4992 10.4904 13.1899C10.8053 12.8806 11.2361 12.6944 11.6944 12.6694L11.8 12.6667H12.4C12.5591 12.6667 12.7117 12.6081 12.8243 12.5039C12.9368 12.3998 13 12.2585 13 12.1111C12.9999 11.8308 13.1142 11.5608 13.3201 11.3553C13.526 11.1497 13.8081 11.0238 14.11 11.0028L14.2 11H17.8ZM16 14.8889C15.554 14.8889 15.1238 15.0422 14.7929 15.3191C14.462 15.596 14.2539 15.9769 14.209 16.3878L14.2024 16.4722L14.2 16.5556L14.2024 16.6389C14.22 16.9646 14.3404 17.2783 14.5487 17.5413C14.757 17.8042 15.044 18.0048 15.3742 18.1182C15.7044 18.2316 16.0633 18.2528 16.4064 18.1792C16.7495 18.1056 17.0617 17.9405 17.3044 17.7042C17.5471 17.4679 17.7097 17.1709 17.7719 16.8499C17.8341 16.5289 17.7932 16.1981 17.6543 15.8985C17.5155 15.5988 17.2847 15.3434 16.9907 15.1639C16.6966 14.9845 16.3522 14.8889 16 14.8889Z" fill="#6B7280"/>
</svg>
