<svg width="14" height="12" viewBox="0 0 14 12" fill="none" xmlns="http://www.w3.org/2000/svg">
<path d="M9.1 6.68453e-08C9.4532 -0.000106386 9.7934 0.126938 10.0524 0.355665C10.3114 0.584392 10.47 0.897896 10.4965 1.23333L10.5 1.33333C10.5 1.49662 10.563 1.65422 10.6769 1.77625C10.7908 1.89827 10.9478 1.97623 11.1181 1.99533L11.2 2H11.9C12.4356 1.99997 12.9511 2.19488 13.3408 2.54486C13.7305 2.89483 13.9651 3.37341 13.9965 3.88267L14 4V10C14 10.5101 13.7954 11.001 13.4279 11.3722C13.0604 11.7433 12.5579 11.9667 12.0232 11.9967L11.9 12H2.1C1.56435 12 1.04894 11.8051 0.659217 11.4551C0.269495 11.1052 0.0349247 10.6266 0.00350008 10.1173L3.26231e-09 10V4C-2.98352e-05 3.48986 0.204628 2.99899 0.572099 2.62783C0.93957 2.25666 1.44207 2.03326 1.9768 2.00333L2.1 2H2.8C2.98565 2 3.1637 1.92976 3.29497 1.80474C3.42625 1.67971 3.5 1.51014 3.5 1.33333C3.49989 0.996949 3.63328 0.672956 3.87345 0.426301C4.11361 0.179647 4.44279 0.0285623 4.795 0.00333348L4.9 6.68453e-08H9.1ZM7 4.66667C6.47962 4.66663 5.97775 4.8506 5.59169 5.18292C5.20564 5.51525 4.96289 5.97225 4.9105 6.46533L4.9028 6.56667L4.9 6.66667L4.9028 6.76667C4.92334 7.15749 5.06382 7.53398 5.30682 7.84952C5.54982 8.16506 5.88468 8.40577 6.26991 8.54185C6.65515 8.67792 7.07383 8.70338 7.47411 8.61507C7.87438 8.52676 8.23866 8.32855 8.52183 8.04501C8.80499 7.76147 8.9946 7.40504 9.06716 7.01989C9.13973 6.63473 9.09206 6.23775 8.93007 5.87814C8.76807 5.51853 8.49887 5.21207 8.1558 4.99673C7.81274 4.78139 7.41088 4.66663 7 4.66667Z" fill="#35408E"/>
</svg>
