<svg width="17" height="16" viewBox="0 0 17 16" fill="none" xmlns="http://www.w3.org/2000/svg">
<path d="M8.50012 4.97658C8.80748 4.97658 9.10225 4.86419 9.31958 4.66413C9.53691 4.46407 9.65901 4.19273 9.65901 3.9098C9.65901 3.62687 9.53691 3.35553 9.31958 3.15547C9.10225 2.95541 8.80748 2.84302 8.50012 2.84302C8.19276 2.84302 7.89799 2.95541 7.68066 3.15547C7.46332 3.35553 7.34123 3.62687 7.34123 3.9098C7.34123 4.19273 7.46332 4.46407 7.68066 4.66413C7.89799 4.86419 8.19276 4.97658 8.50012 4.97658ZM9.18773 0.208069C8.98854 0.0729139 8.74758 0 8.50012 0C8.25266 0 8.0117 0.0729139 7.81251 0.208069L0.472858 5.18994C-0.426442 5.80085 0.0425232 7.11513 1.16047 7.11513H1.54677V12.2656C1.08906 12.4411 0.698058 12.7375 0.423072 13.1173C0.148086 13.4971 0.00142321 13.9434 0.00157577 14.3998V15.4666C0.00157577 15.761 0.261168 16 0.581022 16H16.4192C16.5729 16 16.7203 15.9438 16.8289 15.8438C16.9376 15.7437 16.9987 15.6081 16.9987 15.4666V14.3998C16.9987 13.9435 16.8519 13.4974 16.577 13.1177C16.302 12.738 15.9111 12.4418 15.4535 12.2663V7.11513H15.839C16.9577 7.11513 17.4267 5.80085 16.5266 5.18994L9.18773 0.208069ZM2.70566 12.0885V7.11513H4.63714V12.0885H2.70566ZM14.2946 7.11513V12.0885H12.3631V7.11513H14.2946ZM11.2042 7.11513V12.0885H9.07957V7.11513H11.2042ZM7.92067 7.11513V12.0885H5.79604V7.11513H7.92067ZM1.16047 6.04834L8.50012 1.06647L15.839 6.04834H1.16047ZM1.16047 14.3998C1.16047 13.7128 1.76618 13.1552 2.51251 13.1552H14.4877C15.2341 13.1552 15.8398 13.7128 15.8398 14.3998V14.9332H1.16047V14.3998Z" fill="#9CA3AF"/>
</svg>
