<svg width="16" height="16" viewBox="0 0 16 16" fill="none" xmlns="http://www.w3.org/2000/svg">
<path d="M8 0C3.49337 0 0 3.30113 0 7.76C0 10.0923 0.955813 12.1076 2.5125 13.4997C2.64313 13.6166 2.722 13.7805 2.72738 13.9558L2.77094 15.3789C2.78487 15.8328 3.25369 16.1282 3.66906 15.9448L5.25694 15.2437C5.39152 15.1844 5.54246 15.1734 5.68425 15.2124C6.41394 15.4131 7.1905 15.5199 8 15.5199C12.5066 15.5199 16 12.2188 16 7.75994C16 3.30106 12.5066 0 8 0Z" fill="#0099FF"/>
<path d="M3.19606 10.0294L5.54606 6.3011C5.91981 5.70797 6.72031 5.56029 7.28118 5.98091L9.15025 7.38279C9.23372 7.44539 9.33531 7.47909 9.43965 7.47879C9.54399 7.47849 9.64539 7.44419 9.7285 7.3811L12.2527 5.46535C12.5896 5.20966 13.0295 5.61285 12.804 5.97066L10.454 9.69904C10.0802 10.2921 9.27962 10.4398 8.71881 10.0192L6.84968 8.61729C6.76622 8.55471 6.66465 8.52103 6.56034 8.52133C6.45603 8.52164 6.35465 8.55591 6.27156 8.61897L3.74718 10.5347C3.41031 10.7903 2.9705 10.3872 3.19606 10.0294Z" fill="white"/>
</svg>
