<svg width="16" height="16" viewBox="0 0 16 16" fill="none" xmlns="http://www.w3.org/2000/svg">
<path d="M8 16C10.1217 16 12.1566 15.1571 13.6569 13.6569C15.1571 12.1566 16 10.1217 16 8C16 5.87827 15.1571 3.84344 13.6569 2.34315C12.1566 0.842855 10.1217 0 8 0C5.87827 0 3.84344 0.842855 2.34315 2.34315C0.842855 3.84344 0 5.87827 0 8C0 10.1217 0.842855 12.1566 2.34315 13.6569C3.84344 15.1571 5.87827 16 8 16ZM8.35312 3.64687L11.8531 7.14687C11.9969 7.29063 12.0375 7.50625 11.9625 7.69063C11.8875 7.875 11.7031 8 11.5 8H9.5V11C9.5 11.5531 9.05313 12 8.5 12H7.5C6.94688 12 6.5 11.5531 6.5 11V8H4.5C4.29688 8 4.11562 7.87813 4.0375 7.69063C3.95937 7.50313 4.00312 7.2875 4.14687 7.14687L7.64687 3.64687C7.84062 3.45312 8.15937 3.45312 8.35312 3.64687Z" fill="#FFD400"/>
</svg>
