<svg width="24" height="24" viewBox="0 0 24 24" fill="none" xmlns="http://www.w3.org/2000/svg">
<path d="M12 24C18.6166 24 24 18.6166 24 12C24 5.38338 18.6166 0 12 0C5.38338 0 0 5.38338 0 12C0 18.6166 5.38338 24 12 24ZM12 22.1538C6.38123 22.1538 1.84615 17.6188 1.84615 12C1.84615 6.38123 6.38123 1.84615 12 1.84615C17.6188 1.84615 22.1538 6.38123 22.1538 12C22.1538 17.6188 17.6188 22.1538 12 22.1538ZM12 18.5769L12.6646 17.9123L17.9132 12.6637L16.6154 11.3354L12.9231 15.0277V5.53846H11.0769V15.0277L7.38461 11.3354L6.08677 12.6646L11.3363 17.9132L12.0009 18.5778L12 18.5769Z" fill="#6B7280"/>
</svg>
