<svg width="18" height="14" viewBox="0 0 18 14" fill="none" xmlns="http://www.w3.org/2000/svg">
<path d="M9.00234 0C6.47734 0 4.45547 1.15 2.98359 2.51875C1.52109 3.87812 0.542969 5.5 0.0773437 6.61562C-0.0257813 6.8625 -0.0257813 7.1375 0.0773437 7.38437C0.542969 8.5 1.52109 10.125 2.98359 11.4812C4.45547 12.8469 6.47734 14 9.00234 14C11.5273 14 13.5492 12.85 15.0211 11.4812C16.4836 10.1219 17.4617 8.5 17.9273 7.38437C18.0305 7.1375 18.0305 6.8625 17.9273 6.61562C17.4617 5.5 16.4836 3.875 15.0211 2.51875C13.5492 1.15312 11.5273 0 9.00234 0ZM4.50234 7C4.50234 5.80653 4.97645 4.66193 5.82036 3.81802C6.66428 2.97411 7.80887 2.5 9.00234 2.5C10.1958 2.5 11.3404 2.97411 12.1843 3.81802C13.0282 4.66193 13.5023 5.80653 13.5023 7C13.5023 8.19347 13.0282 9.33807 12.1843 10.182C11.3404 11.0259 10.1958 11.5 9.00234 11.5C7.80887 11.5 6.66428 11.0259 5.82036 10.182C4.97645 9.33807 4.50234 8.19347 4.50234 7ZM9.00234 5C9.00234 6.10313 8.10547 7 7.00234 7C6.64297 7 6.30547 6.90625 6.01172 6.7375C5.98047 7.07812 6.00859 7.42812 6.10234 7.775C6.53047 9.375 8.17734 10.325 9.77734 9.89688C11.3773 9.46875 12.3273 7.82188 11.8992 6.22188C11.518 4.79375 10.1648 3.88438 8.73984 4.00938C8.90547 4.3 9.00234 4.6375 9.00234 5Z" fill="#9CA3AF"/>
</svg>
