<svg width="10" height="16" viewBox="0 0 10 16" fill="none" xmlns="http://www.w3.org/2000/svg">
<path fill-rule="evenodd" clip-rule="evenodd" d="M2.49292 0.480506C2.59193 0.188198 2.81256 0 3.05702 0H7.93229C8.39066 0 8.68952 0.632666 8.48417 1.17083L7.09744 4.80506H9.14973C9.69978 4.80506 9.9748 5.67638 9.5861 6.18572L2.28085 15.7582C1.82003 16.362 1.0524 15.7406 1.25898 14.9309L2.81623 8.80928H0.617254C0.514422 8.80927 0.41322 8.77561 0.322841 8.71133C0.232461 8.64706 0.155767 8.55422 0.0997253 8.44124C0.0436832 8.32827 0.0100684 8.19873 0.00193432 8.06441C-0.00619978 7.93008 0.0114045 7.79523 0.0531481 7.67208L2.49292 0.480506Z" fill="#16A34A"/>
</svg>
