<svg width="28" height="16" viewBox="0 0 28 16" fill="none" xmlns="http://www.w3.org/2000/svg">
<path d="M19.0181 0H15.26C14.91 0 14.5731 0.124955 14.315 0.349873L10.0144 4.09851C10.01 4.10268 10.0056 4.11101 10.0013 4.11517C9.275 4.76494 9.28813 5.80206 9.90938 6.44766C10.465 7.02662 11.6331 7.18073 12.3638 6.56012C12.3681 6.55596 12.3769 6.55596 12.3812 6.55179L15.8769 3.5029C16.1612 3.25715 16.6075 3.27381 16.8656 3.54455C17.1281 3.81528 17.1062 4.23596 16.8219 4.48587L15.68 5.48135L22.05 10.4046C22.1769 10.5045 22.2906 10.6128 22.3956 10.7253V2.6657L20.0069 0.391525C19.7487 0.141615 19.39 0 19.0181 0ZM23.8 2.67403V11.9998C23.8 12.737 24.4256 13.3327 25.2 13.3327H28V2.67403H23.8ZM25.9 11.9998C25.515 11.9998 25.2 11.6999 25.2 11.3334C25.2 10.9669 25.515 10.667 25.9 10.667C26.285 10.667 26.6 10.9669 26.6 11.3334C26.6 11.6999 26.285 11.9998 25.9 11.9998ZM0 13.3285H2.8C3.57437 13.3285 4.2 12.7329 4.2 11.9956V2.67403H0V13.3285ZM2.1 10.667C2.485 10.667 2.8 10.9669 2.8 11.3334C2.8 11.6999 2.485 11.9998 2.1 11.9998C1.715 11.9998 1.4 11.6999 1.4 11.3334C1.4 10.9627 1.715 10.667 2.1 10.667ZM21.1706 11.4417L14.6388 6.39351L13.3263 7.53893C12.0269 8.66769 10.0362 8.5594 8.87687 7.35567C7.7 6.13111 7.79187 4.23596 9.06938 3.1197L12.6481 0H8.98188C8.61 0 8.25562 0.141615 7.99312 0.391525L5.6 2.6657V11.9915H6.40063L10.36 15.4027C11.5588 16.3316 13.3219 16.1566 14.2975 15.0154L14.3062 15.0071L15.0894 15.6527C15.785 16.1941 16.8131 16.09 17.3775 15.4277L18.7512 13.82L18.9875 14.0033C19.5869 14.4656 20.4706 14.3823 20.9562 13.8075L21.3719 13.3202C21.8619 12.7454 21.77 11.9082 21.1706 11.4417Z" fill="#CA8A04"/>
</svg>
