<svg width="17" height="14" viewBox="0 0 17 14" fill="none" xmlns="http://www.w3.org/2000/svg">
<path d="M0 2H17C17 0.896875 16.153 0 15.1111 0H1.88889C0.847049 0 0 0.896875 0 2ZM0 3V12C0 13.1031 0.847049 14 1.88889 14H15.1111C16.153 14 17 13.1031 17 12V3H0ZM1.88889 11.6656C1.88889 10.7437 2.59427 10 3.46198 10H6.92396C7.79462 10 8.49705 10.7469 8.49705 11.6656C8.49705 11.85 8.35538 12 8.18125 12H2.20469C2.03056 12 1.88889 11.85 1.88889 11.6656ZM5.19444 5C5.69541 5 6.17586 5.21071 6.53009 5.58579C6.88433 5.96086 7.08333 6.46957 7.08333 7C7.08333 7.53043 6.88433 8.03914 6.53009 8.41421C6.17586 8.78929 5.69541 9 5.19444 9C4.69348 9 4.21303 8.78929 3.8588 8.41421C3.50456 8.03914 3.30556 7.53043 3.30556 7C3.30556 6.46957 3.50456 5.96086 3.8588 5.58579C4.21303 5.21071 4.69348 5 5.19444 5ZM10.3889 5.5C10.3889 5.225 10.6014 5 10.8611 5H14.6389C14.8986 5 15.1111 5.225 15.1111 5.5C15.1111 5.775 14.8986 6 14.6389 6H10.8611C10.6014 6 10.3889 5.775 10.3889 5.5ZM10.3889 7.5C10.3889 7.225 10.6014 7 10.8611 7H14.6389C14.8986 7 15.1111 7.225 15.1111 7.5C15.1111 7.775 14.8986 8 14.6389 8H10.8611C10.6014 8 10.3889 7.775 10.3889 7.5ZM10.3889 9.5C10.3889 9.225 10.6014 9 10.8611 9H14.6389C14.8986 9 15.1111 9.225 15.1111 9.5C15.1111 9.775 14.8986 10 14.6389 10H10.8611C10.6014 10 10.3889 9.775 10.3889 9.5Z" fill="#9CA3AF"/>
</svg>
