<svg width="22" height="17" viewBox="0 0 22 17" fill="none" xmlns="http://www.w3.org/2000/svg">
<path d="M21 9H3C2.44 9 2 8.56 2 8C2 7.44 2.44 7 3 7H21C21.56 7 22 7.44 22 8C22 8.56 21.56 9 21 9Z" fill="#EFF6FF"/>
<path d="M8 16C7.86885 16.0016 7.73881 15.9757 7.61826 15.9241C7.4977 15.8724 7.38929 15.7961 7.3 15.7L0.3 8.7C-0.1 8.3 -0.1 7.68 0.3 7.28L7.3 0.3C7.7 -0.1 8.32 -0.1 8.72 0.3C9.12 0.7 9.12 1.32 8.72 1.72L2.42 8.02L8.72 14.32C9.12 14.72 9.12 15.34 8.72 15.74C8.52 15.94 8.26 16.04 8.02 16.04L8 16Z" fill="#EFF6FF"/>
</svg>
