<svg width="12" height="12" viewBox="0 0 12 12" fill="none" xmlns="http://www.w3.org/2000/svg">
<path d="M4.2 0C5.31391 0 6.3822 0.442499 7.16985 1.23015C7.9575 2.0178 8.4 3.08609 8.4 4.2C8.4 5.142 8.1 6 7.566 6.714L8.046 7.2H8.4L12 10.8L10.8 12L7.2 8.4V8.046L6.714 7.566C5.98994 8.1118 5.10672 8.40481 4.2 8.4C3.08609 8.4 2.0178 7.9575 1.23015 7.16985C0.442499 6.3822 0 5.31391 0 4.2C0 3.08609 0.442499 2.0178 1.23015 1.23015C2.0178 0.442499 3.08609 0 4.2 0ZM3.6 1.8V3.6H1.8V4.8H3.6V6.6H4.8V4.8H6.6V3.6H4.8V1.8H3.6Z" fill="#FFD400"/>
</svg>
