<svg width="17" height="17" viewBox="0 0 17 17" fill="none" xmlns="http://www.w3.org/2000/svg">
<path d="M15.0025 10.8209L16.8247 11.7345C17.0584 11.8516 17.0584 12.186 16.8247 12.3031L8.78389 16.3333C8.69574 16.3772 8.59865 16.4 8.50021 16.4C8.40178 16.4 8.30468 16.3772 8.21653 16.3333L0.17575 12.3031C0.123223 12.2766 0.0790781 12.2359 0.0482343 12.1857C0.0173905 12.1355 0.00105885 12.0778 0.00105885 12.0188C0.00105885 11.9599 0.0173905 11.9021 0.0482343 11.8519C0.0790781 11.8017 0.123223 11.761 0.17575 11.7345L1.99895 10.8209L7.64811 13.6522C8.18466 13.9205 8.81683 13.9205 9.35232 13.6522L15.0015 10.8199L15.0025 10.8209ZM8.21653 0.0667417C8.30468 0.0228439 8.40178 0 8.50021 0C8.59865 0 8.69574 0.0228439 8.78389 0.0667417L16.8247 4.09584C16.8772 4.12254 16.9212 4.16329 16.952 4.21356C16.9828 4.26384 16.9991 4.32167 16.9991 4.38066C16.9991 4.43965 16.9828 4.49749 16.952 4.54776C16.9212 4.59804 16.8772 4.63879 16.8247 4.66549L8.78389 8.69352C8.69574 8.73742 8.59865 8.76026 8.50021 8.76026C8.40178 8.76026 8.30468 8.73742 8.21653 8.69352L0.17575 4.66549C0.122944 4.63906 0.0785295 4.59842 0.0474865 4.54811C0.0164436 4.4978 0 4.43982 0 4.38066C0 4.32151 0.0164436 4.26353 0.0474865 4.21322C0.0785295 4.16291 0.122944 4.12226 0.17575 4.09584L8.21653 0.0667417Z" fill="#35408E"/>
<path d="M15.0025 7.00098L16.8246 7.91455C17.0584 8.03168 17.0584 8.36601 16.8246 8.48314L8.78384 12.5122C8.69569 12.5561 8.5986 12.579 8.50016 12.579C8.40173 12.579 8.30463 12.5561 8.21648 12.5122L0.175698 8.48314C0.123171 8.4566 0.0790263 8.41598 0.0481825 8.36578C0.0173388 8.31559 0.00100708 8.25779 0.00100708 8.19884C0.00100708 8.1399 0.0173388 8.0821 0.0481825 8.03191C0.0790263 7.98171 0.123171 7.94108 0.175698 7.91455L1.9989 7.00098L7.64806 9.8322C8.18461 10.1005 8.81678 10.1005 9.35227 9.8322L15.0025 7.00098Z" fill="#35408E"/>
</svg>
