<svg width="30" height="35" viewBox="0 0 30 35" fill="none" xmlns="http://www.w3.org/2000/svg">
<path fill-rule="evenodd" clip-rule="evenodd" d="M2.71917 0C2.40417 0 2.12333 0.247668 2.015 0.620115L0.0916668 7.2476C0.0309381 7.45718 -4.439e-06 7.6764 4.77648e-10 7.89702V10.5335C4.77648e-10 12.0242 0.959167 13.2342 2.1425 13.2342C3.32583 13.2342 4.28583 12.0242 4.28583 10.5335C4.28583 12.0251 5.245 13.2342 6.42833 13.2342C7.61167 13.2342 8.57167 12.0242 8.57167 10.5335C8.57167 12.0251 9.53083 13.2342 10.7142 13.2342C11.8975 13.2342 12.8558 12.0261 12.8575 10.5353C12.8575 12.0261 13.8167 13.2342 15 13.2342C16.1833 13.2342 17.1425 12.0242 17.1425 10.5335C17.1425 12.0251 18.1025 13.2342 19.2858 13.2342C20.4692 13.2342 21.4275 12.0261 21.4283 10.5353C21.4292 12.0261 22.3883 13.2342 23.5717 13.2342C24.755 13.2342 25.7142 12.0242 25.7142 10.5335C25.7142 12.0251 26.6733 13.2342 27.8575 13.2342C29.0408 13.2342 30 12.0242 30 10.5335V7.89702C30 7.6764 29.9691 7.45718 29.9083 7.2476L27.985 0.621061C27.8767 0.247668 27.5958 0 27.2808 0H2.71917Z" fill="#FFD400"/>
<path fill-rule="evenodd" clip-rule="evenodd" d="M3.33328 14.3968V21.7418H1.24995C1.13944 21.7418 1.03346 21.7916 0.955321 21.8802C0.877181 21.9689 0.833282 22.0891 0.833282 22.2144V23.1597C0.833282 23.2851 0.877181 23.4053 0.955321 23.494C1.03346 23.5826 1.13944 23.6324 1.24995 23.6324H28.75C28.8605 23.6324 28.9664 23.5826 29.0446 23.494C29.1227 23.4053 29.1666 23.2851 29.1666 23.1597V22.2144C29.1666 22.0891 29.1227 21.9689 29.0446 21.8802C28.9664 21.7916 28.8605 21.7418 28.75 21.7418H26.6666V14.3968C26.3177 14.2394 25.9954 14.0146 25.7141 13.7323C25.4978 13.948 25.2577 14.131 25 14.2768V21.7418H4.99995V14.2768C4.74216 14.131 4.5021 13.948 4.28578 13.7323C4.00578 14.0112 3.68578 14.238 3.33328 14.3968ZM25 12.5469C25.0705 12.4669 25.1372 12.3808 25.2 12.2888H25V12.5469ZM26.2283 12.2888C26.3546 12.4736 26.502 12.6386 26.6666 12.7794V12.2888H26.2283ZM3.33328 12.7794C3.49924 12.6404 3.64684 12.4752 3.77162 12.2888H3.33328V12.7794ZM4.79995 12.2888H4.99995V12.5469C4.92875 12.4655 4.86196 12.3793 4.79995 12.2888ZM2.08328 25.523C1.97278 25.523 1.86679 25.5728 1.78865 25.6614C1.71051 25.7501 1.66662 25.8703 1.66662 25.9956V33.0854C1.66662 33.3361 1.75441 33.5765 1.91069 33.7538C2.06697 33.9311 2.27894 34.0307 2.49995 34.0307H27.5C27.721 34.0307 27.9329 33.9311 28.0892 33.7538C28.2455 33.5765 28.3333 33.3361 28.3333 33.0854V25.9956C28.3333 25.8703 28.2894 25.7501 28.2112 25.6614C28.1331 25.5728 28.0271 25.523 27.9166 25.523H2.08328Z" fill="#FFD400"/>
<path d="M6.66672 19.3787C6.66672 19.2533 6.71062 19.1331 6.78876 19.0444C6.8669 18.9558 6.97288 18.906 7.08338 18.906H9.58338C9.69389 18.906 9.79987 18.9558 9.87801 19.0444C9.95615 19.1331 10.0001 19.2533 10.0001 19.3787V21.2692C10.0001 21.3946 9.95615 21.5148 9.87801 21.6035C9.79987 21.6921 9.69389 21.7419 9.58338 21.7419H7.08338C6.97288 21.7419 6.8669 21.6921 6.78876 21.6035C6.71062 21.5148 6.66672 21.3946 6.66672 21.2692V19.3787Z" fill="#FFD400"/>
<path d="M8.33328 20.324C8.33328 20.1986 8.37718 20.0784 8.45532 19.9897C8.53346 19.9011 8.63944 19.8513 8.74995 19.8513H11.2499C11.3605 19.8513 11.4664 19.9011 11.5446 19.9897C11.6227 20.0784 11.6666 20.1986 11.6666 20.324V21.2692C11.6666 21.3946 11.6227 21.5148 11.5446 21.6035C11.4664 21.6921 11.3605 21.7419 11.2499 21.7419H8.74995C8.63944 21.7419 8.53346 21.6921 8.45532 21.6035C8.37718 21.5148 8.33328 21.3946 8.33328 21.2692V20.324ZM14.9999 20.324C14.9999 20.7 14.8683 21.0607 14.6338 21.3266C14.3994 21.5925 14.0815 21.7419 13.7499 21.7419C13.4184 21.7419 13.1005 21.5925 12.8661 21.3266C12.6316 21.0607 12.4999 20.7 12.4999 20.324C12.4999 19.9479 12.6316 19.5872 12.8661 19.3213C13.1005 19.0554 13.4184 18.906 13.7499 18.906C14.0815 18.906 14.3994 19.0554 14.6338 19.3213C14.8683 19.5872 14.9999 19.9479 14.9999 20.324Z" fill="#FFD400"/>
</svg>
