<svg width="500" height="502" viewBox="0 0 500 502" fill="none" xmlns="http://www.w3.org/2000/svg">
<path d="M445.936 62.033H444.112C444.112 60.177 444.448 58.481 445.12 56.945C445.824 55.377 446.672 54.065 447.664 53.009C448.656 51.953 449.632 50.929 450.592 49.937C452.96 47.601 454.144 45.393 454.144 43.313C454.144 41.233 453.456 39.681 452.08 38.657C450.736 37.601 448.784 37.073 446.224 37.073C443.696 37.073 441.376 37.777 439.264 39.185L438.4 37.745C439.36 36.977 440.608 36.369 442.144 35.921C443.68 35.441 445.232 35.201 446.8 35.201C449.616 35.201 451.904 35.889 453.664 37.265C455.456 38.609 456.352 40.609 456.352 43.265C456.352 45.729 455.136 48.177 452.704 50.609C451.68 51.633 450.656 52.673 449.632 53.729C448.608 54.753 447.728 55.985 446.992 57.425C446.288 58.865 445.936 60.401 445.936 62.033ZM443.968 70.145C443.68 69.857 443.536 69.489 443.536 69.041C443.536 68.593 443.68 68.225 443.968 67.937C444.288 67.649 444.656 67.505 445.072 67.505C445.488 67.505 445.84 67.649 446.128 67.937C446.448 68.225 446.608 68.593 446.608 69.041C446.608 69.489 446.448 69.857 446.128 70.145C445.84 70.433 445.488 70.577 445.072 70.577C444.656 70.577 444.288 70.433 443.968 70.145ZM468.67 62.033H466.846C466.846 60.177 467.182 58.481 467.854 56.945C468.558 55.377 469.406 54.065 470.398 53.009C471.39 51.953 472.366 50.929 473.326 49.937C475.694 47.601 476.878 45.393 476.878 43.313C476.878 41.233 476.19 39.681 474.814 38.657C473.47 37.601 471.518 37.073 468.958 37.073C466.43 37.073 464.11 37.777 461.998 39.185L461.134 37.745C462.094 36.977 463.342 36.369 464.878 35.921C466.414 35.441 467.966 35.201 469.534 35.201C472.35 35.201 474.638 35.889 476.398 37.265C478.19 38.609 479.086 40.609 479.086 43.265C479.086 45.729 477.87 48.177 475.438 50.609C474.414 51.633 473.39 52.673 472.366 53.729C471.342 54.753 470.462 55.985 469.726 57.425C469.022 58.865 468.67 60.401 468.67 62.033ZM466.702 70.145C466.414 69.857 466.27 69.489 466.27 69.041C466.27 68.593 466.414 68.225 466.702 67.937C467.022 67.649 467.39 67.505 467.806 67.505C468.222 67.505 468.574 67.649 468.862 67.937C469.182 68.225 469.342 68.593 469.342 69.041C469.342 69.489 469.182 69.857 468.862 70.145C468.574 70.433 468.222 70.577 467.806 70.577C467.39 70.577 467.022 70.433 466.702 70.145Z" fill="black"/>
<g clip-path="url(#clip0_1502_10031)">
<path d="M242.84 135.381C242.84 135.381 202.69 145.111 174.57 186.001C146.45 226.891 111.09 280.601 129.19 346.141C137.52 376.321 166.56 390.091 196.89 392.341C225.64 394.471 252.1 383.701 280.61 361.081C307.26 339.951 310.08 286.021 295.61 246.711C274.8 190.111 271.65 121.071 242.84 135.381Z" fill="#F7F1E4"/>
<path d="M243 135.751C236.078 137.73 229.377 140.41 223 143.751C216.593 147.056 210.481 150.903 204.73 155.251C203.27 156.321 201.88 157.451 200.47 158.581C199.06 159.711 197.7 160.881 196.38 162.111C193.68 164.491 191.14 167.041 188.64 169.641C183.692 174.893 179.184 180.542 175.16 186.531C167.16 198.531 159.25 210.651 152.26 223.231C145.141 235.701 139.209 248.812 134.54 262.391C132.281 269.165 130.454 276.076 129.07 283.081C127.699 290.066 126.873 297.148 126.6 304.261C126.065 318.476 127.838 332.683 131.85 346.331C133.812 352.963 137.06 359.144 141.41 364.521C145.806 369.865 151.123 374.38 157.11 377.851C163.151 381.359 169.631 384.049 176.38 385.851C183.169 387.68 190.123 388.829 197.14 389.281C204.119 389.754 211.128 389.419 218.03 388.281C224.932 387.125 231.69 385.235 238.19 382.641C251.25 377.471 263.32 369.841 274.56 361.151C275.96 360.081 277.39 358.931 278.71 357.861C279.983 356.8 281.188 355.661 282.32 354.451C284.608 352 286.635 349.319 288.37 346.451C291.872 340.558 294.531 334.202 296.27 327.571C298.054 320.837 299.199 313.95 299.69 307.001C300.225 300.012 300.252 292.994 299.77 286.001C299.283 278.982 298.327 272.003 296.91 265.111C296.2 261.671 295.37 258.251 294.39 254.871C293.91 253.181 293.39 251.511 292.85 249.871L291.14 244.751C288.84 237.798 286.807 230.798 285.04 223.751C283.24 216.751 281.59 209.631 280.04 202.571C276.82 188.461 274.04 174.281 269.86 160.511C268.78 157.091 267.62 153.691 266.24 150.391C264.918 147.083 263.242 143.928 261.24 140.981C259.19 138.141 256.56 135.541 253.24 134.531C251.549 133.988 249.757 133.841 248 134.101C246.264 134.413 244.581 134.968 243 135.751V135.751ZM242.71 135.001C244.34 134.153 246.085 133.546 247.89 133.201C249.745 132.869 251.652 132.954 253.47 133.451C255.281 133.983 256.961 134.889 258.4 136.111C259.826 137.287 261.105 138.63 262.21 140.111C264.384 143.068 266.235 146.249 267.73 149.601C269.28 152.911 270.59 156.311 271.82 159.731C274.31 166.561 276.41 173.521 278.46 180.461L284.46 201.301C288.46 215.171 292.74 228.921 297.74 242.301C298.99 245.571 300.43 249.111 301.51 252.641C302.59 256.171 303.63 259.761 304.51 263.371C306.206 270.607 307.346 277.961 307.92 285.371C309.08 300.151 308.16 315.231 304.04 329.751C302.036 337.105 298.96 344.124 294.91 350.581C292.819 353.846 290.404 356.892 287.7 359.671C286.328 361.066 284.872 362.375 283.34 363.591C281.84 364.771 280.43 365.861 278.94 366.971C267.19 375.731 254.52 383.601 240.58 388.891C233.613 391.572 226.378 393.496 219 394.631C211.609 395.753 204.112 396.018 196.66 395.421C189.251 394.841 181.918 393.525 174.77 391.491C167.559 389.457 160.649 386.478 154.22 382.631C147.717 378.745 141.961 373.73 137.22 367.821C132.548 361.857 129.098 355.03 127.07 347.731C123.084 333.536 121.432 318.786 122.18 304.061C122.996 289.405 125.968 274.95 131 261.161C136.011 247.482 142.316 234.312 149.83 221.831C157.24 209.341 165.51 197.441 173.83 185.641C178.055 179.72 182.725 174.131 187.8 168.921C192.884 163.744 198.367 158.976 204.2 154.661C210.023 150.345 216.183 146.503 222.62 143.171C229.021 139.77 235.752 137.033 242.71 135.001V135.001Z" fill="#261507"/>
<path d="M243 135.751C236.078 137.73 229.377 140.41 223 143.751C216.593 147.056 210.481 150.903 204.73 155.251C203.27 156.321 201.88 157.451 200.47 158.581C199.06 159.711 197.7 160.881 196.38 162.111C193.68 164.491 191.14 167.041 188.64 169.641C183.692 174.893 179.184 180.542 175.16 186.531C167.16 198.531 159.25 210.651 152.26 223.231C145.141 235.701 139.209 248.812 134.54 262.391C132.281 269.165 130.454 276.076 129.07 283.081C127.699 290.066 126.873 297.148 126.6 304.261C126.065 318.476 127.838 332.683 131.85 346.331C133.812 352.963 137.06 359.144 141.41 364.521C145.806 369.865 151.123 374.38 157.11 377.851C163.151 381.359 169.631 384.049 176.38 385.851C183.169 387.68 190.123 388.829 197.14 389.281C204.119 389.754 211.128 389.419 218.03 388.281C224.932 387.125 231.69 385.235 238.19 382.641C251.25 377.471 263.32 369.841 274.56 361.151C275.96 360.081 277.39 358.931 278.71 357.861C279.983 356.8 281.188 355.661 282.32 354.451C284.608 352 286.635 349.319 288.37 346.451C291.872 340.558 294.531 334.202 296.27 327.571C298.054 320.837 299.199 313.95 299.69 307.001C300.225 300.012 300.252 292.994 299.77 286.001C299.283 278.982 298.327 272.003 296.91 265.111C296.2 261.671 295.37 258.251 294.39 254.871C293.91 253.181 293.39 251.511 292.85 249.871L291.14 244.751C288.84 237.798 286.807 230.798 285.04 223.751C283.24 216.751 281.59 209.631 280.04 202.571C276.82 188.461 274.04 174.281 269.86 160.511C268.78 157.091 267.62 153.691 266.24 150.391C264.918 147.083 263.242 143.928 261.24 140.981C259.19 138.141 256.56 135.541 253.24 134.531C251.549 133.988 249.757 133.841 248 134.101C246.264 134.413 244.581 134.968 243 135.751V135.751ZM242.71 135.001C244.34 134.153 246.085 133.546 247.89 133.201C249.745 132.869 251.652 132.954 253.47 133.451C255.281 133.983 256.961 134.889 258.4 136.111C259.826 137.287 261.105 138.63 262.21 140.111C264.384 143.068 266.235 146.249 267.73 149.601C269.28 152.911 270.59 156.311 271.82 159.731C274.31 166.561 276.41 173.521 278.46 180.461L284.46 201.301C288.46 215.171 292.74 228.921 297.74 242.301C298.99 245.571 300.43 249.111 301.51 252.641C302.59 256.171 303.63 259.761 304.51 263.371C306.206 270.607 307.346 277.961 307.92 285.371C309.08 300.151 308.16 315.231 304.04 329.751C302.036 337.105 298.96 344.124 294.91 350.581C292.819 353.846 290.404 356.892 287.7 359.671C286.328 361.066 284.872 362.375 283.34 363.591C281.84 364.771 280.43 365.861 278.94 366.971C267.19 375.731 254.52 383.601 240.58 388.891C233.613 391.572 226.378 393.496 219 394.631C211.609 395.753 204.112 396.018 196.66 395.421C189.251 394.841 181.918 393.525 174.77 391.491C167.559 389.457 160.649 386.478 154.22 382.631C147.717 378.745 141.961 373.73 137.22 367.821C132.548 361.857 129.098 355.03 127.07 347.731C123.084 333.536 121.432 318.786 122.18 304.061C122.996 289.405 125.968 274.95 131 261.161C136.011 247.482 142.316 234.312 149.83 221.831C157.24 209.341 165.51 197.441 173.83 185.641C178.055 179.72 182.725 174.131 187.8 168.921C192.884 163.744 198.367 158.976 204.2 154.661C210.023 150.345 216.183 146.503 222.62 143.171C229.021 139.77 235.752 137.033 242.71 135.001V135.001Z" fill="#261507"/>
</g>
<g clip-path="url(#clip1_1502_10031)">
<path d="M298.53 342.351C298.53 342.351 301.53 352.621 319.86 357.121C338.19 361.621 352.25 360.351 354.05 374.761C356.14 391.511 333.35 391.081 324.6 390.301C314.68 389.421 301.06 382.021 298.8 377.071" fill="#F7F1E4"/>
<path d="M298.91 342.231C300.122 344.718 301.899 346.886 304.1 348.561C306.265 350.28 308.658 351.69 311.21 352.751C313.76 353.824 316.405 354.654 319.11 355.231C321.83 355.811 324.64 356.231 327.43 356.691L335.91 358.001C338.865 358.424 341.784 359.073 344.64 359.941C347.868 360.877 350.793 362.646 353.12 365.071C354.308 366.39 355.262 367.901 355.94 369.541C356.573 371.107 357.019 372.742 357.27 374.411C357.548 376.138 357.585 377.895 357.38 379.631C357.146 381.51 356.544 383.325 355.61 384.971C354.675 386.59 353.451 388.024 352 389.201C350.631 390.315 349.117 391.236 347.5 391.941C345.995 392.624 344.428 393.16 342.82 393.541C341.286 393.919 339.73 394.196 338.16 394.371C335.119 394.684 332.057 394.718 329.01 394.471C327.51 394.361 326.01 394.191 324.53 393.971C322.952 393.764 321.394 393.429 319.87 392.971C316.947 392.091 314.124 390.904 311.45 389.431C308.81 388.021 306.321 386.346 304.02 384.431C302.862 383.464 301.788 382.4 300.81 381.251C299.757 380.101 298.966 378.736 298.49 377.251C298.475 377.2 298.47 377.146 298.476 377.093C298.482 377.04 298.498 376.989 298.525 376.942C298.551 376.896 298.586 376.855 298.628 376.822C298.67 376.789 298.718 376.765 298.77 376.751C298.848 376.733 298.929 376.736 299.005 376.76C299.081 376.785 299.148 376.83 299.2 376.891V376.891C300.076 377.926 301.121 378.806 302.29 379.491C303.452 380.231 304.657 380.898 305.9 381.491C308.389 382.657 310.951 383.659 313.57 384.491C316.115 385.312 318.719 385.934 321.36 386.351C322.615 386.547 323.881 386.66 325.15 386.691C326.5 386.691 327.86 386.691 329.21 386.691C331.91 386.611 334.58 386.441 337.16 386.121C339.627 385.852 342.057 385.319 344.41 384.531C346.401 383.928 348.168 382.748 349.49 381.141C350.057 380.35 350.458 379.452 350.67 378.501C350.894 377.413 350.955 376.298 350.85 375.191C350.751 372.927 349.986 370.743 348.65 368.911C347.092 367.115 345.088 365.759 342.84 364.981C340.288 363.999 337.668 363.203 335 362.601L326.66 360.671C323.85 359.991 321.08 359.261 318.27 358.391C315.45 357.528 312.721 356.392 310.12 355.001C307.516 353.62 305.12 351.88 303 349.831C300.829 347.796 299.179 345.268 298.19 342.461C298.159 342.361 298.168 342.252 298.217 342.158C298.266 342.064 298.349 341.994 298.45 341.961C298.543 341.931 298.644 341.937 298.733 341.978C298.822 342.019 298.892 342.091 298.93 342.181L298.91 342.231Z" fill="#261507"/>
<path d="M154.24 382.651C147.733 378.767 141.975 373.748 137.24 367.831C132.559 361.874 129.103 355.05 127.07 347.751C123.085 333.555 121.43 318.807 122.17 304.081C122.521 297.613 123.306 291.175 124.52 284.811C119.87 282.001 103.46 273.351 79.15 275.211C50.15 277.421 53.41 297.151 54.49 300.211C58.86 312.461 71.11 325.651 90.49 343.211C109.87 360.771 120.49 363.591 115.75 370.701C111.01 377.811 101.05 375.001 82.31 380.751C64 386.391 58.09 394.001 57.77 400.001C57.45 406.001 58.21 416.591 78.59 413.611C89.01 412.081 97.35 399.611 111.59 395.881C133.91 390.091 147.59 396.201 163.21 394.171C166.501 393.626 169.668 392.495 172.56 390.831C166.145 388.855 159.993 386.109 154.24 382.651V382.651Z" fill="#F7F1E4"/>
<path d="M125.65 286.001C122.251 283.897 118.637 282.16 114.87 280.821C111.109 279.454 107.247 278.38 103.32 277.611C95.4803 276.085 87.464 275.678 79.51 276.401C75.5833 276.703 71.7134 277.52 68 278.831C64.4233 280.05 61.2531 282.233 58.84 285.141C56.6208 288.074 55.4865 291.686 55.63 295.361C55.6486 296.274 55.7389 297.183 55.9 298.081C55.9753 298.503 56.0755 298.921 56.2 299.331L56.29 299.581L56.43 299.911L56.7 300.581C57.4348 302.364 58.297 304.092 59.28 305.751C63.19 312.481 68.54 318.461 74.08 324.171C79.62 329.881 85.6 335.281 91.61 340.611C97.62 345.941 103.85 350.751 110.36 355.611C111.99 356.851 113.63 358.081 115.27 359.531C116.153 360.289 116.976 361.115 117.73 362.001C118.69 363.117 119.375 364.443 119.73 365.871C119.933 366.726 119.977 367.611 119.86 368.481C119.745 369.275 119.52 370.05 119.19 370.781C118.636 372.003 117.897 373.133 117 374.131C115.224 375.99 113.005 377.367 110.55 378.131C108.469 378.784 106.343 379.285 104.19 379.631L98.19 380.631C94.3295 381.305 90.5074 382.182 86.74 383.261C83.0289 384.333 79.3884 385.635 75.84 387.161C72.4683 388.593 69.3089 390.481 66.45 392.771C65.2003 393.803 64.1086 395.013 63.21 396.361C62.4619 397.466 62.0045 398.742 61.88 400.071C61.749 401.648 61.8569 403.236 62.2 404.781C62.4748 405.932 63.0837 406.976 63.95 407.781C64.9862 408.632 66.2155 409.216 67.53 409.481C69.1746 409.821 70.8507 409.986 72.53 409.971C74.3666 409.946 76.2001 409.81 78.02 409.561C79.5955 409.308 81.123 408.815 82.55 408.101C85.9239 406.322 89.1537 404.283 92.21 402.001C95.6247 399.483 99.2594 397.277 103.07 395.411C105.07 394.47 107.143 393.694 109.27 393.091C109.8 392.961 110.35 392.811 110.88 392.691L112.42 392.371C113.42 392.171 114.42 391.921 115.51 391.761C119.635 391.035 123.812 390.65 128 390.611C132.137 390.58 136.271 390.807 140.38 391.291C144.44 391.751 148.38 392.291 152.38 392.681C156.286 393.109 160.225 393.152 164.14 392.811C166.064 392.52 167.949 392.013 169.76 391.301C171.623 390.606 173.423 389.753 175.14 388.751V388.751C175.227 388.708 175.327 388.699 175.421 388.724C175.514 388.749 175.596 388.807 175.65 388.888C175.703 388.969 175.726 389.067 175.713 389.163C175.7 389.259 175.653 389.347 175.58 389.411C172.328 392.025 168.589 393.966 164.58 395.121C160.503 395.947 156.35 396.346 152.19 396.311C143.96 396.251 136 395.521 128.19 396.201C124.339 396.532 120.516 397.133 116.75 398.001C115.75 398.201 114.87 398.481 113.93 398.721L112.52 399.091L111.21 399.491C109.487 400.09 107.815 400.826 106.21 401.691C102.856 403.539 99.6525 405.649 96.63 408.001C93.3309 410.688 89.8194 413.102 86.13 415.221C83.9682 416.374 81.635 417.17 79.22 417.581C77.0493 417.932 74.8579 418.139 72.66 418.201C70.3092 418.295 67.9562 418.084 65.66 417.571C64.4015 417.282 63.1754 416.866 62 416.331C60.7049 415.734 59.5053 414.949 58.44 414.001C57.3443 413.033 56.4152 411.891 55.69 410.621C55.0043 409.408 54.4894 408.105 54.16 406.751C53.8667 405.521 53.6926 404.265 53.64 403.001C53.64 402.391 53.64 401.801 53.64 401.221V400.361C53.64 400.061 53.64 399.841 53.69 399.451C53.9371 396.739 54.8848 394.137 56.44 391.901C57.8104 389.902 59.4721 388.119 61.37 386.611C64.8613 383.9 68.7241 381.704 72.84 380.091C76.741 378.51 80.7515 377.213 84.84 376.211C88.84 375.211 93.01 374.431 97.07 373.841C101.13 373.251 105.22 372.841 108.53 371.921C109.975 371.557 111.303 370.831 112.39 369.811C112.857 369.331 113.251 368.785 113.56 368.191C113.747 367.894 113.822 367.539 113.77 367.191C113.625 366.674 113.362 366.198 113 365.801C112.468 365.153 111.883 364.551 111.25 364.001C109.91 362.741 108.35 361.501 106.79 360.251C103.65 357.771 100.43 355.251 97.29 352.641C94.15 350.031 91.07 347.321 88.1 344.541C82.16 339.001 76.29 333.341 70.73 327.361C65.17 321.381 59.82 315.081 55.77 307.711C54.7599 305.872 53.881 303.964 53.14 302.001L52.86 301.261L52.72 300.891L52.58 300.421C52.4259 299.862 52.3056 299.295 52.22 298.721C52.0606 297.612 51.9871 296.492 52 295.371C52.0242 293.159 52.3989 290.966 53.11 288.871C53.8394 286.772 54.9402 284.821 56.36 283.111C59.2207 279.831 62.935 277.408 67.09 276.111C71.0597 274.874 75.1751 274.164 79.33 274.001C87.4972 273.503 95.6936 274.177 103.67 276.001C107.644 276.923 111.54 278.157 115.32 279.691C119.112 281.199 122.732 283.106 126.12 285.381C126.193 285.445 126.24 285.533 126.253 285.63C126.266 285.726 126.243 285.823 126.19 285.904C126.136 285.985 126.054 286.043 125.961 286.069C125.867 286.094 125.767 286.084 125.68 286.041L125.65 286.001Z" fill="#261507"/>
<path d="M190.23 310.891C190.23 310.891 179 353.001 182.61 378.121C186.22 403.241 190.33 419.321 203.16 425.121C215.99 430.921 232.85 431.691 237.16 426.791C242.75 420.371 240.58 413.791 234.16 405.561C227.74 397.331 219.43 386.651 223.71 360.001C226.676 341.664 231.871 323.758 239.18 306.681" fill="#F7F1E4"/>
<path d="M190.61 311.001C189.27 316.761 188.14 322.581 187.15 328.411C186.16 334.241 185.29 340.091 184.65 345.961C183.988 351.805 183.624 357.68 183.56 363.561C183.56 366.491 183.63 369.411 183.87 372.301C184.125 375.196 184.526 378.076 185.07 380.931C186.07 386.751 187.15 392.541 188.6 398.171C190.05 403.801 191.91 409.311 194.8 413.971C196.183 416.256 197.949 418.285 200.02 419.971C201.038 420.77 202.129 421.47 203.28 422.061C204.516 422.645 205.781 423.165 207.07 423.621C212.357 425.523 217.906 426.596 223.52 426.801C226.171 426.924 228.827 426.678 231.41 426.071C232.408 425.842 233.353 425.421 234.19 424.831L234.37 424.671C234.402 424.621 234.442 424.577 234.49 424.541C234.65 424.331 234.86 424.081 235.02 423.851C235.352 423.408 235.643 422.936 235.89 422.441C236.35 421.532 236.615 420.536 236.668 419.519C236.721 418.501 236.562 417.484 236.2 416.531C235.309 414.152 234.043 411.93 232.45 409.951C230.86 407.851 228.75 405.441 226.94 402.851C225.066 400.201 223.474 397.362 222.19 394.381C220.932 391.376 220 388.245 219.41 385.041C218.864 381.9 218.573 378.719 218.54 375.531C218.587 369.343 219.277 363.176 220.6 357.131C221.86 351.231 223.27 345.381 225.06 339.641C228.478 328.146 233.086 317.039 238.81 306.501L239.54 306.831C235.929 318.065 232.925 329.485 230.54 341.041C229.41 346.791 228.34 352.541 227.54 358.341C226.644 363.96 226.309 369.655 226.54 375.341C226.648 378.084 226.983 380.813 227.54 383.501C228.044 386.133 228.825 388.704 229.87 391.171C230.901 393.656 232.184 396.029 233.7 398.251C234.45 399.391 235.27 400.531 236.13 401.691L237.46 403.451C237.93 404.081 238.4 404.731 238.85 405.391C240.846 408.143 242.37 411.209 243.36 414.461C243.887 416.326 244.067 418.271 243.89 420.201C243.693 422.171 243.086 424.078 242.11 425.801C241.66 426.611 241.145 427.384 240.57 428.111C240.29 428.481 240.01 428.781 239.69 429.111C239.48 429.331 239.26 429.551 239.03 429.761C238.8 429.971 238.58 430.131 238.35 430.311C236.746 431.421 234.932 432.193 233.02 432.581C229.8 433.232 226.505 433.431 223.23 433.171C216.974 432.733 210.824 431.326 205 429.001C203.51 428.418 202.054 427.751 200.64 427.001C199.17 426.199 197.786 425.247 196.51 424.161C194.029 422.021 191.938 419.466 190.33 416.611C187.14 411.051 185.46 405.091 184.1 399.211C182.74 393.331 181.89 387.391 181.1 381.491C180.66 378.508 180.373 375.504 180.24 372.491C180.12 369.491 180.16 366.491 180.31 363.491C180.61 357.491 181.31 351.551 182.19 345.651C184.028 333.892 186.586 322.257 189.85 310.811L190.61 311.001Z" fill="#261507"/>
<path d="M297.06 333.921C298 350.501 295.5 379.501 304.83 391.501C316.43 404.721 321.15 418.801 311.95 423.371C302.75 427.941 283.68 426.851 269.43 412.881C255.18 398.911 258.12 379.451 256.12 361.051C254.12 342.651 246.05 316.051 246.05 316.051C246.05 316.051 246.3 313.451 254 295.661C272.23 253.511 305.34 233.221 297.06 333.921Z" fill="#F7F1E4"/>
<path d="M300.91 287.081C299.99 299.121 299.353 311.185 299 323.271C298.68 335.341 298.59 347.421 299.26 359.441C299.546 365.431 300.187 371.398 301.18 377.311C301.667 380.211 302.4 383.065 303.37 385.841C303.833 387.157 304.451 388.412 305.21 389.581C305.385 389.857 305.582 390.118 305.8 390.361C305.98 390.601 306.3 390.911 306.54 391.191C307.07 391.751 307.54 392.341 308.08 392.921C310.115 395.271 311.983 397.76 313.67 400.371C315.417 403.039 316.831 405.91 317.88 408.921C318.428 410.508 318.794 412.152 318.97 413.821C319.175 415.631 319.019 417.463 318.51 419.211C317.943 421.1 316.846 422.787 315.35 424.071C314.628 424.699 313.832 425.236 312.98 425.671C312.214 426.052 311.426 426.386 310.62 426.671C304.25 428.931 297.62 428.891 291.27 427.741C281.684 425.875 272.88 421.172 266 414.241C263.682 411.841 261.682 409.152 260.05 406.241C256.976 400.497 254.999 394.23 254.22 387.761C253.32 381.501 253.08 375.361 252.69 369.411C252.47 366.411 252.28 363.501 251.89 360.631C251.5 357.761 251.09 354.831 250.66 351.901L250 347.541L249.32 343.121L248 334.211C247.1 328.211 246.25 322.211 245.68 316.131C245.669 316.024 245.7 315.917 245.768 315.832C245.835 315.748 245.933 315.694 246.04 315.681C246.122 315.675 246.205 315.692 246.277 315.731C246.35 315.77 246.41 315.829 246.45 315.901C249.256 321.357 251.656 327.013 253.63 332.821C254.63 335.701 255.53 338.631 256.41 341.571C257.29 344.511 258.03 347.491 258.65 350.571C259.905 356.64 260.627 362.807 260.81 369.001C261.08 375.121 261.14 381.081 261.81 386.831C262.272 392.42 263.782 397.871 266.26 402.901C267.539 405.316 269.126 407.554 270.98 409.561C272.878 411.622 274.971 413.495 277.23 415.151C281.799 418.479 286.998 420.841 292.51 422.091C297.97 423.311 303.86 423.471 308.98 421.831C309.603 421.626 310.214 421.386 310.81 421.111C311.319 420.886 311.799 420.601 312.24 420.261C313.087 419.609 313.729 418.728 314.09 417.721C314.85 415.611 314.61 412.831 313.86 410.171C312.048 404.644 309.272 399.481 305.66 394.921C305.21 394.331 304.76 393.741 304.29 393.171L303.57 392.271C303.295 391.938 303.041 391.587 302.81 391.221C301.944 389.839 301.246 388.359 300.73 386.811C299.753 383.859 299.034 380.828 298.58 377.751C297.694 371.717 297.16 365.637 296.98 359.541C296.55 347.401 296.86 335.291 297.44 323.191C298.02 311.091 298.92 299.001 300.12 287.001C300.125 286.949 300.14 286.898 300.165 286.851C300.19 286.804 300.224 286.763 300.265 286.73C300.306 286.696 300.353 286.671 300.404 286.656C300.454 286.641 300.507 286.636 300.56 286.641C300.663 286.656 300.757 286.71 300.822 286.792C300.887 286.874 300.919 286.977 300.91 287.081V287.081Z" fill="#261507"/>
</g>
<g clip-path="url(#clip2_1502_10031)">
<path d="M381.29 70.4908C380.7 69.5508 380.06 68.6308 379.41 67.7208C374.191 60.3987 367.091 54.622 358.86 51.0008C354.722 49.3125 350.371 48.2021 345.93 47.7008C343.689 47.5108 341.438 47.4607 339.19 47.5508C338.06 47.6108 336.94 47.6308 335.81 47.7208L332.39 48.1508L330.69 48.3608L329 48.6808L325.6 49.3008L322.24 50.0908C321.12 50.3508 320 50.6208 318.9 50.9708L315.58 51.9708C314.48 52.3208 313.4 52.7108 312.3 53.0808C310.1 53.7808 307.98 54.7108 305.83 55.5308C301.564 57.3161 297.392 59.3187 293.33 61.5308C289.291 63.77 285.4 66.2651 281.68 69.0008C279.842 70.3718 278.08 71.8406 276.4 73.4008C274.793 75.0039 273.337 76.7512 272.05 78.6208C269.33 82.3808 266.72 86.2708 264.14 90.1808C259 98.0008 254 105.911 248.94 113.841C243.88 121.771 238.94 129.711 234 137.691L233.39 137.321C233.39 137.321 246.39 187.881 283 189.431L282.59 188.851C284.52 187.422 286.645 186.277 288.9 185.451C291.126 184.605 293.4 183.891 295.71 183.311C300.327 182.177 305 181.286 309.71 180.641C314.39 179.991 319.09 179.501 323.79 179.071C323.79 179.071 357.02 179.311 376.21 149.721C380.49 143.121 391.1 124.031 391.35 105.331C391.54 88.1108 381.57 70.9408 381.29 70.4908Z" fill="#F7F1E4"/>
<path d="M282.35 188.541C284.311 187.051 286.481 185.858 288.79 185.001C291.08 184.12 293.417 183.366 295.79 182.741C298.26 182.271 300.61 182.031 303.01 181.661C305.41 181.291 307.77 180.951 310.14 180.551C319.624 179.041 328.957 176.699 338.03 173.551C340.28 172.731 342.5 171.851 344.66 170.851C346.831 169.885 348.951 168.807 351.01 167.621C354.957 165.151 358.639 162.283 362 159.061C363.68 157.531 365.37 156.061 367 154.531C368.654 153.055 370.195 151.458 371.61 149.751C371.95 149.321 372.34 148.921 372.67 148.481L373.19 147.841L373.66 147.121C374.28 146.121 374.89 145.121 375.47 144.121C376.65 142.121 377.763 140.061 378.81 137.941C382.98 129.571 386.25 120.661 387.54 111.581C388.216 107.088 388.247 102.522 387.63 98.021C386.98 93.4455 385.875 88.9464 384.33 84.591C383.57 82.391 382.71 80.211 381.77 78.071C381.3 77.011 380.77 75.951 380.3 74.901L379.51 73.351L379.11 72.591L378.74 71.941C376.309 68.0782 373.369 64.56 370 61.481C366.646 58.3943 362.843 55.8351 358.72 53.891C354.551 52.0206 350.125 50.7869 345.59 50.231H345.8C344.1 50.151 342.53 49.981 341.09 49.951C340.73 49.951 340.38 49.951 340.09 49.951L338.89 50.011L336.55 50.091H336.05L335.46 50.161L334.29 50.291L332 50.611C331.24 50.681 330.49 50.811 329.73 50.951L327.42 51.341C325.87 51.571 324.36 51.981 322.82 52.341C321.28 52.701 319.92 53.041 318.34 53.491C317.58 53.711 316.8 53.911 316.05 54.141L313.81 54.871C312.28 55.351 310.92 55.821 309.43 56.401L307.18 57.261C306.45 57.521 305.8 57.821 305.05 58.121C303.61 58.741 302.17 59.371 300.75 60.031C297.9 61.371 295.09 62.751 292.38 64.301C289.67 65.851 286.98 67.491 284.38 69.301C283.1 70.201 281.82 71.111 280.62 72.061C280.02 72.541 279.42 73.061 278.83 73.541C278.24 74.021 277.62 74.541 277.13 75.061C275.01 77.3163 273.074 79.7373 271.34 82.301C269.49 84.871 267.69 87.481 265.9 90.111C262.307 95.3243 258.757 100.588 255.25 105.901L234.36 137.901L234.13 138.251L233.79 138.001L233.19 137.621C233.144 137.594 233.105 137.559 233.073 137.516C233.042 137.474 233.019 137.425 233.007 137.374C232.995 137.322 232.993 137.269 233.002 137.217C233.012 137.165 233.031 137.115 233.06 137.071C233.125 136.993 233.216 136.943 233.316 136.93C233.416 136.917 233.518 136.942 233.6 137.001L234.22 137.351L233.65 137.491C240.24 126.561 246.72 115.581 253.43 104.741C256.763 99.3076 260.147 93.901 263.58 88.521C265.3 85.8543 267.057 83.1876 268.85 80.521C269.76 79.191 270.66 77.891 271.61 76.571C272.576 75.2098 273.639 73.9198 274.79 72.711C275.41 72.001 276 71.521 276.61 71.001C277.22 70.481 277.83 69.911 278.46 69.391C279.73 68.331 281.02 67.391 282.32 66.391C284.94 64.471 287.66 62.701 290.43 61.031C293.2 59.361 296.07 57.831 298.97 56.401C300.42 55.681 301.88 55.001 303.35 54.331C304.08 54.021 304.86 53.641 305.63 53.331L307.83 52.441C308.57 52.1343 309.33 51.8343 310.11 51.541C310.89 51.241 311.68 50.981 312.43 50.711L314.72 49.911C315.48 49.661 316.24 49.451 317.01 49.211C318.48 48.761 320.21 48.211 321.75 47.881C323.29 47.551 324.88 47.051 326.48 46.781L328.87 46.321C329.68 46.161 330.49 46.001 331.31 45.901L333.73 45.571L334.93 45.411L335.53 45.331L336.22 45.271L338.65 45.131L339.84 45.001C340.29 45.001 340.74 45.001 341.18 45.001C342.92 45.001 344.53 45.151 346.01 45.181H346.23C351.32 45.6882 356.302 46.9766 361 49.001C365.666 51.1023 369.985 53.901 373.81 57.301C377.629 60.6855 380.972 64.5707 383.75 68.851C383.99 69.241 384.12 69.481 384.28 69.771L384.75 70.611L385.63 72.271C386.2 73.391 386.74 74.511 387.26 75.641C388.26 77.911 389.26 80.211 390.12 82.561C391.881 87.2842 393.164 92.1719 393.95 97.151C394.34 99.6894 394.544 102.253 394.56 104.821C394.563 107.379 394.399 109.934 394.07 112.471C392.74 122.561 389.33 132.061 385.07 141.001C383.98 143.241 382.83 145.441 381.59 147.611C380.98 148.691 380.34 149.771 379.67 150.841C379 151.911 378.38 153.121 377.67 154.181C376.177 156.344 374.504 158.378 372.67 160.261C370.842 162.098 368.809 163.719 366.61 165.091C362.25 167.841 357.44 169.561 352.84 171.361C350.53 172.241 348.24 173.141 345.91 173.921C343.58 174.701 341.25 175.441 338.91 176.121C329.569 178.827 320.039 180.833 310.4 182.121C308 182.451 305.6 182.741 303.19 183.011C300.78 183.281 298.34 183.471 296.05 183.831C293.716 184.338 291.421 185.006 289.18 185.831C286.94 186.627 284.827 187.745 282.91 189.151C282.868 189.182 282.82 189.205 282.769 189.218C282.718 189.231 282.665 189.234 282.613 189.227C282.561 189.22 282.511 189.202 282.466 189.175C282.421 189.148 282.382 189.113 282.35 189.071C282.281 189 282.242 188.905 282.242 188.806C282.242 188.707 282.281 188.612 282.35 188.541V188.541Z" fill="#261507"/>
</g>
<path d="M304 59.0009C297.06 52.8609 293.43 43.3109 291.36 32.1409C289.29 20.9709 283.59 1.00086 274.07 3.40086C264.55 5.80086 260 12.3109 257.52 30.7809C255.04 49.2509 248.42 69.6509 257.52 81.5809C266.62 93.5109 274 93.3209 274 93.3209C274 93.3209 274.76 80.9709 277.29 77.3209C277.73 76.6709 273.05 74.3209 273.86 73.5109C274.67 72.7009 278.55 73.9709 279.75 73.0009C280.51 72.3809 277.4 64.4109 278.26 63.7709C279.12 63.1309 283.77 71.1609 284.71 70.5109C285.33 70.0809 284.63 64.8809 285.78 64.5809C286.93 64.2809 287.58 68.6809 288.78 68.4209C290.23 68.0909 293.88 63.9809 294.65 63.5109C301.34 59.4609 304 59.0009 304 59.0009Z" fill="#F79E8F"/>
<path d="M303.45 58.871C300.607 56.5075 298.203 53.6604 296.35 50.461C294.536 47.2489 293.078 43.8488 292 40.321C291.45 38.571 291 36.801 290.52 35.021L289.28 29.751C288.424 26.3082 287.376 22.9162 286.14 19.591C284.996 16.3437 283.486 13.2371 281.64 10.331C280.802 9.02838 279.762 7.86724 278.56 6.89096C278.121 6.51749 277.612 6.23643 277.062 6.06459C276.512 5.89276 275.933 5.8337 275.36 5.89096C275.228 5.90896 275.098 5.93569 274.97 5.97096L274.5 6.10096C274.11 6.21096 273.73 6.34096 273.35 6.47096C272.614 6.73083 271.896 7.03814 271.2 7.39096C269.878 8.04933 268.68 8.93247 267.66 10.001C265.615 12.4078 264.148 15.2502 263.37 18.311C262.459 21.6248 261.81 25.0053 261.43 28.421C261.32 29.291 261.23 30.161 261.14 31.041L260.85 33.781C260.65 35.621 260.42 37.441 260.18 39.241C259.18 46.471 257.83 53.471 257.06 60.291C256.29 67.111 256.27 73.841 259.34 79.291C259.69 79.941 260.22 80.681 260.69 81.391C261.16 82.101 261.69 82.771 262.19 83.481C262.69 84.191 263.26 84.821 263.79 85.481C264.32 86.141 264.92 86.771 265.53 87.371C266.708 88.6159 268.011 89.7352 269.42 90.711C270.123 91.1962 270.862 91.6274 271.63 92.001C272.388 92.3952 273.19 92.6974 274.02 92.901H274.09C274.141 92.9116 274.189 92.9323 274.232 92.9618C274.275 92.9913 274.311 93.0291 274.339 93.0729C274.367 93.1166 274.386 93.1656 274.395 93.2168C274.403 93.2679 274.402 93.3204 274.39 93.371C274.372 93.4513 274.33 93.5243 274.269 93.5797C274.208 93.6352 274.132 93.6706 274.05 93.681C272.107 93.8119 270.16 93.5078 268.35 92.791C266.545 92.1214 264.824 91.2456 263.22 90.181C262.4 89.671 261.66 89.071 260.88 88.501C260.1 87.931 259.39 87.301 258.7 86.641C258.01 85.981 257.29 85.341 256.7 84.641C256.11 83.941 255.4 83.301 254.7 82.451C252.194 79.1937 250.504 75.3844 249.77 71.341C249.069 67.5067 248.834 63.6017 249.07 59.711C249.43 52.111 250.94 44.931 252.41 37.921C252.78 36.171 253.14 34.431 253.47 32.691L254.47 27.341C255.137 23.6068 256.09 19.9294 257.32 16.341C258.558 12.4371 260.68 8.87133 263.52 5.92096C265.056 4.43169 266.839 3.22038 268.79 2.34096C269.726 1.92153 270.688 1.56409 271.67 1.27096L273.11 0.880958L274 0.700958C274.32 0.700958 274.63 0.610958 275 0.590958C276.286 0.513559 277.574 0.721877 278.77 1.20096C279.864 1.65048 280.877 2.27534 281.77 3.05096C283.307 4.44004 284.61 6.06753 285.63 7.87096C287.478 11.1772 288.935 14.6876 289.97 18.331C291.012 21.8667 291.85 25.4592 292.48 29.091L293.36 34.441C293.66 36.201 294.017 37.941 294.43 39.661C295.233 43.1106 296.407 46.4633 297.93 49.661C299.437 52.8623 301.491 55.7761 304 58.271C304.073 58.3457 304.114 58.4463 304.114 58.551C304.114 58.6557 304.073 58.7562 304 58.831C303.932 58.9092 303.836 58.9573 303.733 58.9648C303.63 58.9723 303.528 58.9386 303.45 58.871V58.871Z" fill="#261507"/>
<path d="M391.59 24.8011C388.5 9.44113 384.32 4.22113 376.2 2.73113C368.08 1.24113 364.39 18.3111 363.26 27.8011C362.26 36.0111 360.43 42.9911 356.38 48.3011C357.896 48.6479 359.389 49.0887 360.85 49.6211C364.882 51.132 368.662 53.2461 372.06 55.8911C375.435 58.5136 378.442 61.5777 381 65.0011C381.23 65.3211 381.35 65.5111 381.5 65.7411L381.94 66.4211L382.77 67.7711C383.3 68.6711 383.77 69.5911 384.32 70.5111C385.32 72.3111 386.2 74.1511 387.04 76.0311C388.59 74.9011 390.96 72.5011 394.34 67.4111C401.36 56.9411 394.69 40.1711 391.59 24.8011Z" fill="#F79E8F"/>
<path d="M354.06 50.3809C355.018 49.287 355.884 48.1164 356.65 46.8809C357.39 45.6365 358.039 44.3397 358.59 43.0009C359.663 40.3088 360.444 37.5095 360.92 34.6509C361.44 31.7709 361.66 28.9409 361.92 25.9209C362.203 22.8989 362.65 19.8944 363.26 16.9209C363.863 13.8609 364.781 10.8717 366 8.00094C366.666 6.45606 367.519 4.99856 368.54 3.66094C369.754 2.05138 371.444 0.865205 373.37 0.270936C374.449 -0.0191426 375.577 -0.0770842 376.68 0.100936C377.512 0.235493 378.336 0.412389 379.15 0.630936C380.87 1.08637 382.507 1.81207 384 2.78094C385.498 3.77462 386.825 5.0038 387.93 6.42094C388.979 7.75503 389.884 9.19639 390.63 10.7209C392.018 13.5841 393.146 16.5661 394 19.6309C394.43 21.1209 394.82 22.6309 395.2 24.0809C395.58 25.5309 395.93 26.8809 396.32 28.2809C398.105 34.0132 399.531 39.8512 400.59 45.7609C401.088 48.9084 401.293 52.0955 401.2 55.2809C401.116 58.6795 400.368 62.0288 399 65.1409C398.637 65.9354 398.219 66.7039 397.75 67.4409C397.524 67.8148 397.277 68.1753 397.01 68.5209C396.78 68.8739 396.522 69.2082 396.24 69.5209C395.24 70.6809 394.18 71.8209 393.05 72.9009C391.909 74.0017 390.678 75.0052 389.37 75.9009C388.695 76.3324 387.982 76.7007 387.24 77.0009C386.848 77.1741 386.439 77.3048 386.02 77.3909C385.803 77.4412 385.582 77.4713 385.36 77.4809C385.087 77.4927 384.815 77.4484 384.56 77.3509C384.51 77.334 384.464 77.3074 384.424 77.2726C384.384 77.2378 384.352 77.1954 384.329 77.148C384.306 77.1006 384.292 77.0491 384.289 76.9964C384.285 76.9436 384.293 76.8908 384.31 76.8409C384.348 76.7433 384.422 76.664 384.517 76.6194C384.612 76.5748 384.72 76.5682 384.82 76.6009C384.82 76.6009 385.03 76.5009 385.13 76.4309C385.265 76.3513 385.395 76.2645 385.52 76.1709C385.774 75.9601 386.015 75.7329 386.24 75.4909C386.711 74.9819 387.145 74.4406 387.54 73.8709C388.353 72.7017 389.098 71.4864 389.77 70.2309C390.48 68.9909 391.14 67.7009 391.77 66.4209C392.11 65.7309 392.36 65.2609 392.59 64.6609C392.816 64.0933 393.006 63.5122 393.16 62.9209C393.765 60.4324 393.951 57.8605 393.71 55.3109C393.475 52.5701 393.061 49.8475 392.47 47.1609C391.32 41.6609 389.89 36.0009 388.8 30.0009C388.53 28.5209 388.27 27.0009 388.03 25.5109C387.79 24.0209 387.56 22.6809 387.29 21.2909C386.791 18.5848 386.024 15.935 385 13.3809C384.133 11.0849 382.678 9.05717 380.78 7.50094C379.82 6.7903 378.754 6.23672 377.62 5.86094C377.03 5.66094 376.4 5.50094 375.77 5.35094C375.407 5.27713 375.033 5.27713 374.67 5.35094C373.733 5.59112 372.898 6.12777 372.29 6.88094C371.428 7.826 370.685 8.87393 370.08 10.0009C368.824 12.5194 367.819 15.1555 367.08 17.8709C366.261 20.6594 365.593 23.4902 365.08 26.3509C364.59 29.2109 364.08 32.2609 363.31 35.1709C362.569 38.1219 361.506 40.9824 360.14 43.7009C359.432 45.0469 358.623 46.3372 357.72 47.5609C356.815 48.7656 355.812 49.8928 354.72 50.9309C354.645 51.0042 354.545 51.0453 354.44 51.0453C354.335 51.0453 354.235 51.0042 354.16 50.9309C354.093 50.8572 354.055 50.7609 354.055 50.6609C354.055 50.561 354.093 50.4647 354.16 50.3909L354.06 50.3809Z" fill="#261507"/>
<path d="M305 58.771C305 58.771 298.09 61.241 295.38 62.691C293.08 63.931 288.46 68.691 288.46 68.691C288.46 68.691 286.62 64.001 285.74 64.001C284.86 64.001 284.74 70.471 284.74 70.471C284.74 70.471 279.82 62.861 277.74 63.791C276.04 64.541 280.13 73.671 280.13 73.671C280.13 73.671 274.54 71.761 273.66 73.121C272.44 75.001 276.2 77.341 276.81 78.231C277.42 79.121 270.75 83.521 274.07 93.231" fill="#F7F1E4"/>
<path d="M305.1 59.0011C303.59 59.6311 302.1 60.2911 300.61 60.9511C299.12 61.6111 297.61 62.3011 296.23 63.0611C294.889 63.8714 293.664 64.8605 292.59 66.0011C291.44 67.1311 290.33 68.3211 289.25 69.5011C289.161 69.6065 289.05 69.6922 288.926 69.7529C288.802 69.8135 288.666 69.8477 288.528 69.8534C288.39 69.859 288.252 69.836 288.123 69.7856C287.995 69.7353 287.878 69.6589 287.78 69.5611C287.677 69.4677 287.592 69.3558 287.53 69.2311V69.1511C287.134 68.2529 286.694 67.3751 286.21 66.5211C285.999 66.1243 285.755 65.7463 285.48 65.3911C285.39 65.2611 285.18 65.1111 285.36 65.2511C285.505 65.3269 285.667 65.3614 285.83 65.3511C285.994 65.3502 286.156 65.309 286.3 65.2311C286.384 65.171 286.452 65.0923 286.5 65.0011C286.64 64.8511 286.61 64.8611 286.6 64.9111C286.491 65.2999 286.421 65.6985 286.39 66.1011C286.33 66.5611 286.3 67.1011 286.27 67.5411C286.22 68.5411 286.2 69.5411 286.2 70.5411C286.203 70.7318 286.167 70.9212 286.096 71.0983C286.025 71.2753 285.919 71.4364 285.785 71.5722C285.651 71.7081 285.492 71.8159 285.316 71.8896C285.14 71.9632 284.951 72.0011 284.76 72.0011C284.527 72.0024 284.298 71.9476 284.09 71.8414C283.883 71.7353 283.705 71.5808 283.57 71.3911L283.51 71.3111C282.591 69.9637 281.589 68.6745 280.51 67.4511C279.997 66.8867 279.438 66.3649 278.84 65.8911C278.626 65.7245 278.39 65.5867 278.14 65.4811C278.07 65.4811 278.04 65.4811 278.14 65.4811C278.24 65.4811 278.38 65.5611 278.85 65.1611C279.15 64.8111 279.08 64.7211 279.1 64.7711C279.093 64.8709 279.093 64.9712 279.1 65.0711C279.142 65.4081 279.205 65.7421 279.29 66.0711C279.485 66.8367 279.722 67.5912 280 68.3311C280.57 69.8611 281.25 71.4211 281.93 72.9011C282.145 73.3731 282.168 73.9102 281.995 74.3991C281.821 74.8879 281.465 75.2902 281 75.5211C280.565 75.7233 280.072 75.7623 279.61 75.6311H279.49C278.434 75.3124 277.358 75.0618 276.27 74.8811C275.833 74.8132 275.392 74.7831 274.95 74.7911C274.82 74.7911 274.76 74.8711 275.03 74.7111C275.123 74.6498 275.207 74.5757 275.28 74.4911C275.327 74.4407 275.37 74.3873 275.41 74.3311V74.3311C275.434 74.2692 275.454 74.2057 275.47 74.1411C275.47 73.9911 275.47 73.9011 275.47 73.9511C275.503 74.07 275.557 74.1819 275.63 74.2811C275.903 74.6682 276.211 75.0296 276.55 75.3611L277.88 76.7011L278.12 76.9811C278.176 77.0394 278.226 77.103 278.27 77.1711L278.36 77.3011C278.462 77.4527 278.543 77.6175 278.6 77.7911C278.744 78.2296 278.744 78.7025 278.6 79.1411C278.54 79.3213 278.463 79.4954 278.37 79.6611C278.178 80.012 277.957 80.3465 277.71 80.6611C276.965 81.5112 276.296 82.4246 275.71 83.3911C275.155 84.3288 274.731 85.3382 274.45 86.3911C273.886 88.6831 273.811 91.0681 274.23 93.3911C274.239 93.4454 274.226 93.5009 274.194 93.5458C274.162 93.5907 274.114 93.6213 274.06 93.6311C274.019 93.6353 273.979 93.627 273.943 93.6074C273.907 93.5877 273.878 93.5576 273.86 93.5211C272.569 91.261 271.945 88.6813 272.06 86.0811C272.143 84.7119 272.433 83.3633 272.92 82.0811C273.419 80.8616 274.028 79.6901 274.74 78.5811C274.866 78.401 274.977 78.2103 275.07 78.0111C275.07 78.0111 275.07 78.0111 275.07 78.1111C274.969 78.4025 274.969 78.7196 275.07 79.0111C275.121 79.1467 275.185 79.2772 275.26 79.4011V79.4011L275.19 79.3411L273.83 78.2211C273.256 77.7462 272.739 77.2059 272.29 76.6111C271.997 76.2219 271.758 75.7946 271.58 75.3411C271.328 74.7063 271.255 74.0144 271.37 73.3411C271.45 72.9919 271.578 72.6554 271.75 72.3411L271.88 72.1111C271.961 71.9906 272.051 71.8769 272.15 71.7711C272.321 71.5736 272.52 71.4018 272.74 71.2611C273.292 70.9202 273.922 70.7242 274.57 70.6911C275.347 70.6434 276.126 70.6938 276.89 70.8411C278.2 71.0637 279.488 71.3983 280.74 71.8411L278.28 74.5411C277.59 72.8811 277 71.2611 276.46 69.5411C276.2 68.6811 275.95 67.8011 275.76 66.8611C275.659 66.3558 275.589 65.8449 275.55 65.3311C275.52 64.9984 275.52 64.6637 275.55 64.3311C275.617 63.7465 275.865 63.1975 276.26 62.7611C276.535 62.4726 276.879 62.2592 277.26 62.1411C277.537 62.0657 277.823 62.032 278.11 62.0411C278.538 62.0647 278.958 62.1664 279.35 62.3411C279.881 62.6048 280.372 62.9414 280.81 63.3411C281.533 63.9492 282.202 64.6183 282.81 65.3411C283.969 66.7256 285.034 68.1855 286 69.7111L283.31 70.4811C283.31 69.4211 283.44 68.4011 283.55 67.3411C283.597 66.8211 283.667 66.2911 283.76 65.7511C283.84 65.154 283.985 64.5674 284.19 64.0011C284.296 63.7258 284.456 63.4744 284.66 63.2611C284.779 63.1502 284.91 63.053 285.05 62.9711C285.253 62.8697 285.474 62.8086 285.7 62.7911C285.99 62.7908 286.275 62.863 286.53 63.0011C286.915 63.2338 287.237 63.5563 287.47 63.9411C287.783 64.4218 288.057 64.9267 288.29 65.4511C288.74 66.4511 289.11 67.3911 289.47 68.3911L287.72 68.0011C288.92 66.8411 290.15 65.7511 291.43 64.6811C292.701 63.5444 294.121 62.5856 295.65 61.8311C298.709 60.5895 301.83 59.5047 305 58.5811C305.05 58.5679 305.104 58.5739 305.15 58.5979C305.196 58.6219 305.232 58.6623 305.25 58.7111C305.261 58.7399 305.265 58.7706 305.264 58.8013C305.262 58.8321 305.254 58.862 305.239 58.8894C305.225 58.9167 305.206 58.9408 305.182 58.96C305.158 58.9792 305.13 58.9932 305.1 59.0011V59.0011Z" fill="#261507"/>
<path d="M378.745 99.4968C383.706 101.204 397.872 117.241 397.872 117.241C397.872 117.241 410.516 134.479 412.146 141.272C414.752 152.12 403.174 170.619 394.816 176.2C386.458 181.781 368.529 183.614 368.529 183.614C356.163 188.54 341.033 187.767 334.716 188.96C327.45 190.362 307.997 188.234 299.157 187.184C288.093 185.932 273.029 191.59 273.029 191.59C267.384 190.302 269.661 186.198 267 182.501C264.466 176.999 283.497 156.569 292 157.501C300.503 158.434 303.022 154.291 312.771 146.573C322.52 138.855 332.892 134.253 339.983 121.446C343.151 115.721 346.201 110.545 349.807 107.588C354.364 103.906 359.224 103.024 360.851 101.577C363.794 98.9608 373.776 97.8492 378.745 99.4968Z" fill="#F7F1E4"/>
<path d="M386.968 132.816L379.481 143.548L395.262 144.069L386.968 132.816Z" fill="#F4538E"/>
<path d="M363.656 109.928C366.596 107.766 371.058 107.131 377.893 106.708C384.728 106.286 386.939 108.091 389.568 112.015C392.198 115.939 396.702 121.47 393.637 124.957C391.926 126.972 389.778 128.57 387.355 129.628C387.355 129.628 378.813 123.732 374.384 122.332C369.956 120.932 361.107 119.305 360.561 116.936C360.015 114.567 362.109 111.094 363.656 109.928Z" fill="#261507"/>
<path d="M272.92 191.292C278.416 189.04 284.181 187.508 290.071 186.735C296.005 186.044 301.974 186.539 307.835 186.939C313.697 187.339 319.572 187.71 325.445 187.738C331.319 187.765 337.173 187.639 343.026 187.31L347.408 187.027C348.846 186.927 350.275 186.744 351.688 186.538C354.54 186.086 357.364 185.471 360.146 184.698C361.574 184.312 363.013 183.919 364.549 183.62C366.086 183.321 367.51 183.177 368.977 182.939C371.868 182.487 374.745 181.993 377.594 181.404C380.427 180.869 383.224 180.163 385.97 179.289L386.938 178.94C387.068 178.897 387.193 178.844 387.314 178.781L387.695 178.582C388.273 178.249 388.833 177.886 389.373 177.495C390.503 176.644 391.632 175.793 392.691 174.871C397.027 171.166 400.795 166.844 403.875 162.043C407.009 157.418 408.898 152.063 409.362 146.495C409.644 140.967 408.031 135.507 404.791 131.019L404.186 130.156L403.526 129.245C403.088 128.628 402.689 128.017 402.243 127.378C401.409 126.13 400.579 124.852 399.839 123.577C398.311 121.009 396.877 118.424 395.454 115.831C394.081 113.408 392.298 111.24 390.184 109.425C388.053 107.549 385.692 105.951 383.158 104.671C378.059 102.018 372.307 100.881 366.583 101.393C360.846 101.965 355.381 104.124 350.802 107.627C348.531 109.425 346.512 111.518 344.797 113.852C343.073 116.221 341.504 118.699 340.099 121.27C338.696 123.864 337.149 126.378 335.466 128.799C333.806 131.315 331.418 133.266 328.621 134.39C328.59 134.402 328.558 134.406 328.525 134.405C328.493 134.403 328.461 134.394 328.432 134.38C328.403 134.365 328.377 134.345 328.356 134.32C328.335 134.295 328.319 134.267 328.309 134.236C328.298 134.206 328.292 134.174 328.294 134.141C328.295 134.109 328.302 134.078 328.316 134.048C328.329 134.019 328.348 133.993 328.372 133.971C328.396 133.95 328.424 133.933 328.454 133.923C331.128 132.779 333.387 130.845 334.929 128.38C336.52 125.92 337.974 123.373 339.283 120.752C340.636 118.104 342.162 115.549 343.852 113.103C345.57 110.628 347.613 108.395 349.925 106.464C352.263 104.545 354.865 102.972 357.65 101.793C360.443 100.603 363.386 99.7999 366.397 99.4074C372.5 98.6903 378.681 99.7306 384.213 102.406C386.987 103.706 389.582 105.357 391.935 107.319C394.361 109.279 396.421 111.654 398.018 114.333C399.5 116.864 400.993 119.387 402.557 121.838C403.334 123.065 404.138 124.265 404.97 125.439C405.391 126.033 405.821 126.568 406.249 127.184L406.906 128.044L407.604 128.97C409.453 131.504 410.899 134.31 411.888 137.287C412.877 140.307 413.31 143.482 413.167 146.656C412.726 152.9 410.686 158.925 407.244 164.152C403.933 169.276 399.882 173.883 395.224 177.823C394.057 178.82 392.84 179.758 391.578 180.632C390.915 181.094 390.228 181.52 389.52 181.908C389.334 182.014 389.138 182.117 388.921 182.218C388.705 182.319 388.428 182.421 388.27 182.47C387.898 182.599 387.525 182.739 387.155 182.859C384.257 183.733 381.31 184.431 378.328 184.95C375.386 185.476 372.439 185.9 369.496 186.284C368.046 186.474 366.421 186.609 365.179 186.829C363.936 187.048 362.395 187.447 361.01 187.747C358.073 188.485 355.096 189.058 352.095 189.463C350.596 189.636 349.09 189.788 347.588 189.84L343.142 190.003C337.22 190.18 331.306 190.157 325.381 189.92C319.456 189.683 313.558 189.187 307.695 188.585C301.831 187.984 296.001 187.366 290.185 187.862C284.344 188.416 278.6 189.727 273.096 191.761C273.065 191.772 273.031 191.777 272.998 191.775C272.965 191.774 272.932 191.765 272.903 191.751C272.873 191.736 272.846 191.716 272.824 191.691C272.802 191.666 272.785 191.637 272.775 191.605C272.756 191.544 272.761 191.479 272.788 191.421C272.815 191.363 272.861 191.318 272.92 191.292V191.292Z" fill="#261507"/>
<path d="M306.075 165.475C306.414 165.239 306.827 165.135 307.237 165.184C307.572 165.208 307.902 165.282 308.216 165.403C308.813 165.637 309.376 165.947 309.894 166.325C310.901 167.049 311.834 167.87 312.68 168.777C313.565 169.668 314.325 170.583 315.069 171.536C315.762 172.459 316.516 173.334 317.327 174.156C320.601 177.302 325.03 179.055 329.502 179.997C331.752 180.465 334.039 180.735 336.336 180.806C338.583 180.898 340.832 180.719 343.036 180.273C343.494 180.187 343.943 180.054 344.374 179.876C344.771 179.684 345.144 179.444 345.484 179.163C346.261 178.494 346.954 177.734 347.549 176.898C348.851 175.05 349.997 173.097 350.975 171.058C352.004 168.981 352.953 166.833 353.895 164.653C354.838 162.472 355.783 160.273 356.989 158.018C357.637 156.798 358.428 155.658 359.344 154.623C360.212 153.624 361.105 152.73 361.994 151.865C363.797 150.099 365.621 148.548 367.437 146.975L372.818 142.319C374.523 140.811 376.14 139.208 377.663 137.516C380.383 134.283 382.465 130.563 383.799 126.553L390.939 126.547C391.654 128.908 392.56 131.207 393.649 133.421C394.147 134.464 394.725 135.467 395.378 136.421C395.67 136.822 395.987 137.204 396.328 137.564C396.47 137.72 396.621 137.866 396.782 138.002C396.973 138.169 397.174 138.325 397.382 138.47C398.778 139.44 400.003 140.636 401.005 142.009C402.061 143.458 402.786 145.121 403.128 146.881C403.642 150.017 403.357 153.231 402.299 156.227C401.406 158.937 400.227 161.543 398.782 164.003C397.417 166.41 395.897 168.727 394.233 170.938C392.6 173.174 390.802 175.284 388.852 177.25C387.871 178.229 386.825 179.142 385.722 179.981C384.615 180.859 383.368 181.545 382.034 182.008C381.984 182.025 381.932 182.032 381.88 182.028C381.828 182.025 381.777 182.011 381.73 181.987C381.684 181.964 381.642 181.931 381.609 181.891C381.575 181.852 381.55 181.805 381.534 181.756C381.503 181.664 381.506 181.564 381.542 181.475C381.579 181.385 381.647 181.312 381.734 181.269V181.269C382.86 180.652 383.876 179.853 384.742 178.904C385.654 177.961 386.501 176.957 387.275 175.898C388.838 173.777 390.257 171.554 391.522 169.244C392.783 166.942 393.927 164.579 394.951 162.162C395.953 159.83 396.72 157.404 397.241 154.92C397.785 152.749 397.81 150.479 397.314 148.296C396.695 146.47 395.385 144.959 393.664 144.087C393.305 143.872 392.957 143.638 392.622 143.385C392.238 143.099 391.897 142.799 391.565 142.5C390.955 141.919 390.388 141.296 389.868 140.635C388.936 139.426 388.103 138.144 387.377 136.801C386.66 135.509 386.026 134.198 385.453 132.885C384.881 131.573 384.366 130.279 383.866 128.805L391.006 128.798C390.848 129.281 390.732 129.527 390.603 129.873L390.196 130.825C389.919 131.433 389.633 132.029 389.329 132.612C388.721 133.779 388.069 134.899 387.38 135.994C386.691 137.088 385.926 138.142 385.147 139.164C384.338 140.242 383.449 141.258 382.488 142.203C380.605 144.029 378.702 145.569 376.811 147.101L371.14 151.525C369.278 152.99 367.429 154.437 365.703 155.941C364.84 156.688 364.017 157.441 363.274 158.205C362.568 158.887 361.946 159.651 361.419 160.479C360.299 162.341 359.246 164.516 358.181 166.638C357.115 168.761 356.021 170.94 354.821 173.083C353.622 175.288 352.239 177.387 350.687 179.359C349.835 180.427 348.846 181.378 347.745 182.187C347.136 182.637 346.473 183.009 345.772 183.293C345.094 183.536 344.393 183.708 343.68 183.807C341.167 184.176 338.619 184.235 336.092 183.983C333.628 183.762 331.189 183.321 328.804 182.666C324.071 181.354 319.377 179.18 315.934 175.444C315.116 174.523 314.373 173.537 313.712 172.496C313.063 171.517 312.358 170.569 311.626 169.669C310.907 168.766 310.104 167.933 309.229 167.181C308.807 166.82 308.341 166.513 307.842 166.269C307.615 166.153 307.369 166.078 307.116 166.046C306.933 166.013 306.744 166.025 306.566 166.079L306.406 166.138C306.359 166.158 306.309 166.169 306.258 166.169C306.206 166.169 306.156 166.159 306.108 166.139C306.061 166.119 306.018 166.09 305.983 166.054C305.947 166.017 305.919 165.973 305.901 165.925C305.875 165.842 305.879 165.752 305.91 165.67C305.942 165.588 306 165.52 306.075 165.475V165.475Z" fill="#261507"/>
<path d="M359.713 157.816C360.625 155.576 361.902 153.503 363.494 151.682C365.056 149.83 366.858 148.195 368.852 146.821C370.949 145.418 373.292 144.425 375.757 143.893C376.363 143.746 377.045 143.64 377.606 143.527L379.244 143.222L382.636 142.517C385.027 141.986 387.475 141.75 389.924 141.815C391.27 141.881 392.594 142.177 393.841 142.688C395.164 143.243 396.311 144.148 397.159 145.305C397.568 145.861 397.907 146.465 398.168 147.103C398.386 147.713 398.558 148.338 398.683 148.973C398.918 150.193 398.988 151.439 398.89 152.678C398.712 155.041 398.103 157.351 397.093 159.494C397.078 159.531 397.055 159.563 397.027 159.59C396.998 159.618 396.965 159.639 396.928 159.652C396.891 159.666 396.852 159.672 396.812 159.67C396.773 159.668 396.735 159.658 396.699 159.641C396.638 159.613 396.588 159.566 396.557 159.506C396.525 159.447 396.513 159.38 396.523 159.313C396.981 157.157 397.102 154.942 396.88 152.749C396.774 151.707 396.527 150.683 396.146 149.707C395.808 148.829 395.317 148.018 394.696 147.312C394.051 146.719 393.282 146.277 392.445 146.017C391.608 145.758 390.724 145.689 389.857 145.814C387.771 145.979 385.712 146.395 383.725 147.053C382.672 147.359 381.612 147.715 380.551 148.081L378.907 148.638C378.375 148.836 377.966 149.01 377.492 149.226C375.674 150.092 373.924 151.118 372.042 152.076C368.3 153.984 364.543 156.212 360.181 158.225C360.105 158.26 360.018 158.265 359.939 158.236C359.859 158.208 359.794 158.15 359.758 158.074C359.733 158.037 359.716 157.994 359.709 157.95C359.701 157.905 359.703 157.86 359.713 157.816Z" fill="#261507"/>
<path d="M352.99 127.262C354.39 127.459 355.685 126.484 355.881 125.084C356.078 123.683 355.103 122.389 353.703 122.192C352.303 121.995 351.008 122.971 350.811 124.371C350.614 125.771 351.59 127.066 352.99 127.262Z" fill="#261507"/>
<path d="M360.548 136.141C362.139 136.365 363.611 135.256 363.835 133.664C364.058 132.073 362.949 130.601 361.358 130.378C359.766 130.154 358.295 131.263 358.071 132.854C357.848 134.446 358.956 135.917 360.548 136.141Z" fill="#261507"/>
<path d="M348.735 139.217C350.485 139.463 352.103 138.243 352.349 136.493C352.595 134.743 351.376 133.125 349.626 132.879C347.876 132.633 346.257 133.852 346.011 135.602C345.765 137.353 346.985 138.971 348.735 139.217Z" fill="#261507"/>
<path d="M340.23 106.211C340.23 109.521 336.54 112.211 333.23 112.211C329.92 112.211 326.23 109.521 326.23 106.211C326.23 102.901 329.91 98.2109 333.23 98.2109C336.55 98.2109 340.23 102.891 340.23 106.211Z" fill="#261507"/>
<path d="M393.23 98.2109C393.23 101.521 389.54 104.211 386.23 104.211C382.92 104.211 379.23 101.521 379.23 98.2109C379.23 94.9009 382.91 90.2109 386.23 90.2109C389.55 90.2109 393.23 94.8909 393.23 98.2109Z" fill="#261507"/>
<path d="M318 112.101C319.041 109.266 320.443 106.577 322.17 104.101C323.968 101.348 326.514 99.1655 329.51 97.8107C330.36 97.477 331.246 97.2421 332.15 97.1107C332.614 97.0472 333.082 97.0071 333.55 96.9907C333.97 96.9907 334.4 96.9907 334.83 96.9907C336.593 97.041 338.314 97.5401 339.83 98.4407C341.368 99.3543 342.64 100.654 343.52 102.211C344.418 103.713 344.751 105.485 344.46 107.211L343.97 107.331C342.235 105.348 340.022 103.844 337.54 102.961C336.43 102.561 335.33 102.151 334.14 101.791C333.84 101.701 333.53 101.641 333.22 101.561C332.949 101.504 332.675 101.46 332.4 101.431C331.837 101.39 331.27 101.434 330.72 101.561C329.488 101.876 328.32 102.404 327.27 103.121C326.098 103.852 325.003 104.7 324 105.651C321.917 107.669 320.056 109.906 318.45 112.321L318 112.101Z" fill="#261507"/>
<path d="M376.33 101.781C375.974 100.421 375.819 99.0158 375.87 97.6108C375.896 96.1652 376.128 94.7306 376.56 93.3508C377.038 91.787 377.873 90.356 379 89.1708C379.654 88.4954 380.431 87.9522 381.29 87.5708C382.191 87.1762 383.167 86.9817 384.15 87.0008C385.052 87.0163 385.945 87.1854 386.79 87.5008C387.18 87.6448 387.56 87.8118 387.93 88.0008C388.308 88.1647 388.667 88.3692 389 88.6108C390.355 89.566 391.438 90.8587 392.14 92.3608C392.73 93.7001 393.085 95.131 393.19 96.5908C393.299 97.967 393.232 99.3516 392.99 100.711H392.49C391.961 98.2937 390.887 96.0295 389.35 94.0908C388.738 93.3102 387.9 92.7375 386.95 92.4508C386.71 92.4012 386.473 92.3378 386.24 92.2608C386.003 92.2016 385.762 92.1548 385.52 92.1208C385.112 92.0614 384.698 92.0614 384.29 92.1208C383.609 92.2138 382.966 92.4904 382.43 92.9208C381.644 93.548 380.968 94.3016 380.43 95.1508C379.107 97.3087 377.905 99.5389 376.83 101.831L376.33 101.781Z" fill="#261507"/>
<path d="M335.73 105.711C336.835 105.711 337.73 104.816 337.73 103.711C337.73 102.606 336.835 101.711 335.73 101.711C334.625 101.711 333.73 102.606 333.73 103.711C333.73 104.816 334.625 105.711 335.73 105.711Z" fill="white"/>
<path d="M388.23 96.2109C389.335 96.2109 390.23 95.3155 390.23 94.2109C390.23 93.1064 389.335 92.2109 388.23 92.2109C387.125 92.2109 386.23 93.1064 386.23 94.2109C386.23 95.3155 387.125 96.2109 388.23 96.2109Z" fill="white"/>
<g clip-path="url(#clip3_1502_10031)">
<path d="M227.17 129.001C227.298 138.291 229.174 147.475 232.7 156.071C235.688 164.888 240.052 173.177 245.63 180.631C251.282 187.973 257.988 194.439 265.53 199.821C269.269 202.499 273.219 204.87 277.34 206.911C279.4 207.911 281.49 208.911 283.61 209.661C284.67 210.081 285.75 210.431 286.81 210.791L287.61 211.031C287.88 211.121 288.42 211.271 288.42 211.271L293.93 194.351C293.93 194.351 289.52 193.251 285.51 191.981C281.509 190.705 277.592 189.182 273.78 187.421C266.17 183.861 258.69 179.261 253 172.291C250.421 168.906 248.149 165.299 246.21 161.511C244.3 157.781 242.67 154.001 241.16 150.121C239.65 146.241 238.4 142.341 237.29 138.381C236.73 136.381 236.2 134.381 235.73 132.381C235.5 131.381 235.26 130.381 235.06 129.381L234.75 127.911L234.61 127.161L234.54 126.781L227.17 129.001Z" fill="#C0272D"/>
<path d="M301.06 227.351C301.495 229.038 301.736 230.769 301.78 232.511C301.847 234.376 301.614 236.24 301.09 238.031C300.517 239.992 299.489 241.791 298.09 243.281C296.567 244.86 294.641 245.99 292.52 246.551C290.356 247.111 288.084 247.111 285.92 246.551C283.824 245.995 281.881 244.969 280.24 243.551C277.185 240.787 275.161 237.067 274.5 233.001C273.819 229.081 274.526 225.046 276.5 221.591C277.516 219.881 278.878 218.402 280.5 217.251C282.071 216.105 283.884 215.336 285.8 215.001C287.704 214.711 289.65 214.903 291.46 215.561C293.161 216.201 294.708 217.192 296 218.471C298.459 220.919 300.208 223.988 301.06 227.351V227.351ZM300.37 227.491C300.108 225.883 299.505 224.349 298.602 222.993C297.698 221.637 296.514 220.491 295.13 219.631C293.858 218.846 292.436 218.334 290.956 218.128C289.476 217.921 287.968 218.024 286.53 218.431C285.196 218.822 283.965 219.504 282.927 220.43C281.889 221.355 281.07 222.5 280.53 223.781C279.404 226.317 279.192 229.166 279.93 231.841C280.624 234.401 282.237 236.615 284.46 238.061C286.384 239.357 288.702 239.937 291.01 239.701C292.195 239.561 293.347 239.223 294.42 238.701C295.669 238.111 296.793 237.286 297.73 236.271C298.786 235.128 299.569 233.76 300.02 232.271C300.492 230.724 300.612 229.09 300.37 227.491V227.491Z" fill="#261507"/>
<path d="M300.37 227.491C300.108 225.882 299.505 224.349 298.602 222.993C297.698 221.637 296.514 220.491 295.13 219.631C293.858 218.846 292.436 218.334 290.956 218.127C289.476 217.921 287.968 218.024 286.53 218.431C285.196 218.821 283.965 219.504 282.927 220.43C281.889 221.355 281.071 222.5 280.53 223.781C279.404 226.317 279.192 229.166 279.93 231.841C280.624 234.4 282.237 236.615 284.46 238.061C286.384 239.357 288.702 239.937 291.01 239.701C292.195 239.561 293.347 239.223 294.42 238.701C295.669 238.111 296.793 237.286 297.73 236.271C298.786 235.128 299.569 233.76 300.02 232.271C300.492 230.724 300.612 229.09 300.37 227.491V227.491Z" fill="#FAAF3B"/>
<path d="M227.17 129.001C227.298 138.291 229.174 147.475 232.7 156.071C235.688 164.888 240.052 173.178 245.63 180.631C251.282 187.973 257.988 194.439 265.53 199.821C269.269 202.499 273.219 204.87 277.34 206.911C279.4 207.911 281.49 208.911 283.61 209.661C284.67 210.081 285.75 210.431 286.81 210.791L287.61 211.031C287.88 211.121 288.42 211.271 288.42 211.271L293.93 194.351C293.93 194.351 289.52 193.251 285.51 191.981C281.509 190.705 277.592 189.182 273.78 187.421C266.17 183.861 258.69 179.261 253 172.291C250.421 168.906 248.149 165.299 246.21 161.511C244.3 157.781 242.67 154.001 241.16 150.121C239.65 146.241 238.4 142.341 237.29 138.381C236.73 136.381 236.2 134.381 235.73 132.381C235.5 131.381 235.26 130.381 235.06 129.381L234.75 127.911L234.61 127.161L234.54 126.781L227.17 129.001ZM235 126.001C235.13 126.174 235.231 126.366 235.3 126.571L235.44 126.921L235.72 127.631L236.29 129.001L237.46 131.821C238.26 133.691 239.06 135.551 239.89 137.401C241.56 141.091 243.26 144.751 245.11 148.321C248.78 155.431 252.85 162.431 257.88 168.161L259.79 170.161L261.93 172.001C262.652 172.615 263.41 173.186 264.2 173.711C264.962 174.281 265.753 174.812 266.57 175.301C269.845 177.387 273.271 179.226 276.82 180.801C280.38 182.441 284.06 183.881 287.82 185.201C289.68 185.871 291.57 186.491 293.46 187.071C295.35 187.651 297.29 188.231 299.11 188.681L303 189.681L301.49 193.191L291.93 215.441L290.93 217.691L288.69 217.131C287.96 216.941 287.41 216.771 286.79 216.581C286.17 216.391 285.61 216.181 285.02 215.981C283.86 215.551 282.7 215.121 281.58 214.631C279.3 213.691 277.12 212.631 274.96 211.461C270.681 209.153 266.594 206.505 262.74 203.541C255.065 197.652 248.308 190.656 242.69 182.781C242.34 182.291 241.97 181.781 241.63 181.311L240.63 179.771L238.73 176.691C238.14 175.631 237.6 174.561 237.03 173.491C236.46 172.421 235.89 171.371 235.43 170.261L234 167.001C233.53 165.901 233.13 164.761 232.7 163.641C231.79 161.421 231.14 159.111 230.39 156.841C227.658 147.669 226.181 138.169 226 128.601V128.151L226.42 128.051C229.32 127.311 232.2 126.661 235 126.001Z" fill="#261507"/>
</g>
<defs>
<clipPath id="clip0_1502_10031">
<rect width="186.42" height="262.73" fill="white" transform="translate(122 133.001)"/>
</clipPath>
<clipPath id="clip1_1502_10031">
<rect width="305.51" height="172.27" fill="white" transform="translate(52 261.001)"/>
</clipPath>
<clipPath id="clip2_1502_10031">
<rect width="161.53" height="144.43" fill="white" transform="translate(233 45.001)"/>
</clipPath>
<clipPath id="clip3_1502_10031">
<rect width="76.97" height="120.97" fill="white" transform="translate(226 126.001)"/>
</clipPath>
</defs>
</svg>
