<svg width="17" height="16" viewBox="0 0 17 16" fill="none" xmlns="http://www.w3.org/2000/svg">
<path d="M8.5 7.25505C7.49862 7.25505 6.64093 6.89949 5.92693 6.18838C5.21293 5.47727 4.85633 4.62346 4.85714 3.62694C4.85795 2.63041 5.21455 1.77579 5.92693 1.06307C6.63931 0.350348 7.497 -0.00399722 8.5 3.40093e-05C9.503 0.00406524 10.3607 0.358813 11.0731 1.06428C11.7855 1.76975 12.142 2.62437 12.1429 3.62814C12.1437 4.63192 11.7871 5.48574 11.0731 6.18959C10.3591 6.89344 9.50138 7.24779 8.5 7.25505ZM0 14.7447V14.0094C0 13.5103 0.145714 13.0435 0.437143 12.6089C0.729381 12.1736 1.122 11.8357 1.615 11.5955C2.76129 11.048 3.90838 10.6377 5.05629 10.3643C6.20338 10.0902 7.35129 9.95315 8.5 9.95315C9.64871 9.95315 10.797 10.0902 11.9449 10.3643C13.0928 10.6385 14.2391 11.0488 15.3838 11.5955C15.8776 11.8357 16.2702 12.1736 16.5616 12.6089C16.8539 13.0435 17 13.5103 17 14.0094V14.7447C17 15.0994 16.879 15.3977 16.6369 15.6396C16.3949 15.8799 16.0954 16 15.7384 16H1.26286C0.905857 16 0.606334 15.8795 0.364286 15.6384C0.122238 15.3973 0.000809524 15.1002 0 14.7447ZM1.21429 14.7906H15.7857V14.0082C15.7857 13.7405 15.6987 13.4885 15.5246 13.2523C15.3514 13.0169 15.1114 12.8177 14.8046 12.6549C13.8056 12.1727 12.7751 11.8035 11.713 11.5471C10.6509 11.2907 9.5799 11.1625 8.5 11.1625C7.4201 11.1625 6.3491 11.2907 5.287 11.5471C4.2249 11.8035 3.19438 12.1727 2.19543 12.6549C1.88781 12.8177 1.64779 13.0169 1.47536 13.2523C1.30131 13.4885 1.21429 13.7409 1.21429 14.0094V14.7906ZM8.5 6.04568C9.16786 6.04568 9.73979 5.80864 10.2158 5.33457C10.6918 4.86049 10.9294 4.29088 10.9286 3.62573C10.9278 2.96057 10.6902 2.39136 10.2158 1.91809C9.74141 1.44483 9.16948 1.20779 8.5 1.20698C7.83052 1.20618 7.259 1.44322 6.78543 1.91809C6.31186 2.39297 6.07386 2.96218 6.07143 3.62573C6.069 4.28927 6.307 4.85888 6.78543 5.33457C7.26386 5.81025 7.83538 6.04688 8.5 6.04447" fill="#9CA3AF"/>
</svg>
