<svg width="24" height="21" viewBox="0 0 24 21" fill="none" xmlns="http://www.w3.org/2000/svg">
<path d="M11.998 3.5C13.7273 3.5 15.1279 1.93375 15.1279 0H17.221C17.8861 0 18.5238 0.293125 18.9932 0.818125L23.6332 6.01125C24.1223 6.55812 24.1223 7.44625 23.6332 7.99312L21.6497 10.2112C21.1606 10.7581 20.3665 10.7581 19.8774 10.2112L18.2577 8.4V18.2C18.2577 19.7444 17.1349 21 15.7539 21H8.24224C6.8612 21 5.73837 19.7444 5.73837 18.2V8.4L4.11867 10.2112C3.62964 10.7581 2.83544 10.7581 2.3464 10.2112L0.366778 7.98875C-0.122259 7.44187 -0.122259 6.55375 0.366778 6.00688L5.00677 0.818125C5.47624 0.293125 6.11395 0 6.77904 0H8.87212C8.87212 1.93375 10.2727 3.5 12.002 3.5H11.998Z" fill="#6B7280"/>
</svg>
