<svg width="34" height="26" viewBox="0 0 34 26" fill="none" xmlns="http://www.w3.org/2000/svg">
<path d="M0 3.71429H34C34 1.66562 32.3059 0 30.2222 0H3.77778C1.6941 0 0 1.66562 0 3.71429ZM0 5.57143V22.2857C0 24.3344 1.6941 26 3.77778 26H30.2222C32.3059 26 34 24.3344 34 22.2857V5.57143H0ZM3.77778 21.6647C3.77778 19.9527 5.18854 18.5714 6.92396 18.5714H13.8479C15.5892 18.5714 16.9941 19.9585 16.9941 21.6647C16.9941 22.0071 16.7108 22.2857 16.3625 22.2857H4.40937C4.06111 22.2857 3.77778 22.0071 3.77778 21.6647ZM10.3889 9.28571C11.3908 9.28571 12.3517 9.67704 13.0602 10.3736C13.7687 11.0702 14.1667 12.0149 14.1667 13C14.1667 13.9851 13.7687 14.9298 13.0602 15.6264C12.3517 16.323 11.3908 16.7143 10.3889 16.7143C9.38696 16.7143 8.42607 16.323 7.7176 15.6264C7.00913 14.9298 6.61111 13.9851 6.61111 13C6.61111 12.0149 7.00913 11.0702 7.7176 10.3736C8.42607 9.67704 9.38696 9.28571 10.3889 9.28571ZM20.7778 10.2143C20.7778 9.70357 21.2028 9.28571 21.7222 9.28571H29.2778C29.7972 9.28571 30.2222 9.70357 30.2222 10.2143C30.2222 10.725 29.7972 11.1429 29.2778 11.1429H21.7222C21.2028 11.1429 20.7778 10.725 20.7778 10.2143ZM20.7778 13.9286C20.7778 13.4179 21.2028 13 21.7222 13H29.2778C29.7972 13 30.2222 13.4179 30.2222 13.9286C30.2222 14.4393 29.7972 14.8571 29.2778 14.8571H21.7222C21.2028 14.8571 20.7778 14.4393 20.7778 13.9286ZM20.7778 17.6429C20.7778 17.1321 21.2028 16.7143 21.7222 16.7143H29.2778C29.7972 16.7143 30.2222 17.1321 30.2222 17.6429C30.2222 18.1536 29.7972 18.5714 29.2778 18.5714H21.7222C21.2028 18.5714 20.7778 18.1536 20.7778 17.6429Z" fill="#2A326B"/>
</svg>
