<svg width="24" height="24" viewBox="0 0 24 24" fill="none" xmlns="http://www.w3.org/2000/svg">
<path d="M12 0C5.38338 0 0 5.38338 0 12C0 18.6166 5.38338 24 12 24C18.6166 24 24 18.6166 24 12C24 5.38338 18.6166 0 12 0ZM12 1.84615C17.6188 1.84615 22.1538 6.38123 22.1538 12C22.1538 17.6188 17.6188 22.1538 12 22.1538C6.38123 22.1538 1.84615 17.6188 1.84615 12C1.84615 6.38123 6.38123 1.84615 12 1.84615ZM12 5.42308L11.3354 6.08769L6.08677 11.3363L7.38462 12.6646L11.0769 8.97231V18.4615H12.9231V8.97231L16.6154 12.6646L17.9132 11.3354L12.6637 6.08677L11.9991 5.42215L12 5.42308Z" fill="#6B7280"/>
</svg>
