<svg width="6" height="6" viewBox="0 0 6 6" fill="none" xmlns="http://www.w3.org/2000/svg">
<path fill-rule="evenodd" clip-rule="evenodd" d="M3 6C3.39397 6 3.78407 5.9224 4.14805 5.77164C4.51203 5.62087 4.84274 5.3999 5.12132 5.12132C5.3999 4.84274 5.62087 4.51203 5.77164 4.14805C5.9224 3.78407 6 3.39397 6 3C6 2.60603 5.9224 2.21593 5.77164 1.85195C5.62087 1.48797 5.3999 1.15726 5.12132 0.87868C4.84274 0.600104 4.51203 0.379125 4.14805 0.228361C3.78407 0.0775973 3.39397 -5.87054e-09 3 0C2.20435 1.18561e-08 1.44129 0.31607 0.87868 0.87868C0.316071 1.44129 0 2.20435 0 3C0 3.79565 0.316071 4.55871 0.87868 5.12132C1.44129 5.68393 2.20435 6 3 6ZM2.92267 4.21333L4.58933 2.21333L4.07733 1.78667L2.644 3.50633L1.90233 2.76433L1.431 3.23567L2.431 4.23567L2.689 4.49367L2.92267 4.21333Z" fill="#35408E"/>
</svg>
